<svg width="139" height="33" viewBox="0 0 139 33" fill="none" xmlns="http://www.w3.org/2000/svg">
<path d="M28.286 0H4.71403C2.11054 0 0 2.11054 0 4.71403V28.286C0 30.8895 2.11054 33 4.71403 33H28.286C30.8895 33 33 30.8895 33 28.286V4.71403C33 2.11054 30.8895 0 28.286 0Z" fill="url(#paint0_radial_669_1658)"/>
<path d="M22.8822 9.56143V15.668C22.8822 15.9519 22.8607 16.2295 22.8177 16.4999C22.541 18.2659 21.4001 19.7426 19.8419 20.4859C19.1461 20.819 18.3679 21.0044 17.5458 21.0044H15.4467C15.1288 21.0044 14.818 20.9767 14.5162 20.9238C14.1213 20.854 13.8374 20.5047 13.8374 20.1035V17.3041C14.2512 17.7125 14.8198 17.9641 15.4467 17.9641H17.5458C18.4942 17.9641 19.31 17.3865 19.6601 16.5635C19.6691 16.5429 19.6771 16.5214 19.6852 16.4999C19.7864 16.242 19.841 15.9617 19.841 15.668V9.56143C19.841 8.29337 18.813 7.26532 17.5449 7.26532H15.4458C14.1777 7.26532 13.1497 8.29337 13.1497 9.56143V11.4456C11.8897 11.939 10.8249 12.8256 10.1094 13.9549V9.56143C10.1094 6.61427 12.4986 4.22412 15.4467 4.22412H17.5458C20.493 4.22412 22.8831 6.61337 22.8831 9.56143H22.8822Z" fill="#160100"/>
<path d="M22.8831 19.0452V23.4386C22.8831 26.3858 20.4939 28.7759 17.5458 28.7759H15.4467C12.4995 28.7759 10.1094 26.3867 10.1094 23.4386V17.3311C10.1094 17.049 10.1309 16.7714 10.1739 16.5001C10.4497 14.7359 11.5915 13.2574 13.1497 12.5132C13.8455 12.181 14.6237 11.9956 15.4458 11.9956H17.5449C17.8646 11.9956 18.1789 12.0243 18.4834 12.078C18.8774 12.1478 19.1613 12.4971 19.1613 12.8974V15.7031C18.7467 15.2911 18.1744 15.0359 17.5449 15.0359H15.4458C14.5736 15.0359 13.8133 15.524 13.4264 16.2422C13.3807 16.3246 13.3404 16.4105 13.3055 16.5001C13.2043 16.758 13.1497 17.0374 13.1497 17.3311V23.4386C13.1497 24.7067 14.1777 25.7347 15.4458 25.7347H17.5449C18.813 25.7347 19.841 24.7067 19.841 23.4386V21.5544C21.101 21.061 22.1658 20.1744 22.8813 19.0452H22.8831Z" fill="#FFFDFA"/>
<path d="M43.1627 25.2454H39.2812L45.1977 8.10107H49.8648L55.7734 25.2454H51.892L47.602 12.0218H47.4684L43.1627 25.2454ZM42.9191 18.5039H52.0963V21.3325H42.9191V18.5039Z" fill="#FFFDFA"/>
<path d="M68.1655 16.0524L64.9048 16.2567C64.8498 15.9738 64.732 15.7224 64.5434 15.5024C64.3627 15.2746 64.1191 15.0938 63.8205 14.9603C63.522 14.8267 63.1684 14.756 62.752 14.756C62.202 14.756 61.7305 14.8738 61.3534 15.1017C60.9762 15.3296 60.7877 15.6438 60.7877 16.0288C60.7877 16.3353 60.9134 16.5946 61.157 16.8067C61.4005 17.0188 61.8248 17.1917 62.422 17.3174L64.7477 17.7888C65.997 18.0481 66.932 18.4567 67.5448 19.0303C68.1577 19.596 68.4641 20.3503 68.4641 21.2696C68.4641 22.1103 68.2205 22.8488 67.7255 23.4853C67.2305 24.1217 66.5548 24.6167 65.6984 24.9703C64.842 25.3238 63.852 25.5046 62.7362 25.5046C61.0312 25.5046 59.6798 25.151 58.6741 24.436C57.6684 23.721 57.0791 22.7546 56.9062 21.5288L60.4105 21.3481C60.5127 21.8667 60.772 22.2596 61.1805 22.5346C61.5891 22.8096 62.1077 22.9431 62.7441 22.9431C63.3805 22.9431 63.8755 22.8253 64.2527 22.5817C64.6377 22.3381 64.8262 22.0238 64.8341 21.6388C64.8341 21.3167 64.6927 21.0496 64.4255 20.8374C64.1584 20.6253 63.742 20.4681 63.1841 20.3581L60.9605 19.9181C59.7034 19.6667 58.7684 19.2346 58.1634 18.6138C57.5505 17.9931 57.2441 17.2074 57.2441 16.2488C57.2441 15.4238 57.472 14.7088 57.9198 14.1117C58.3677 13.5146 59.0041 13.051 59.8212 12.7288C60.6384 12.4067 61.597 12.2417 62.697 12.2417C64.3234 12.2417 65.5962 12.5874 66.5312 13.271C67.4662 13.9546 68.0084 14.8896 68.1655 16.076V16.0524Z" fill="#FFFDFA"/>
<path d="M82.1366 13.6403C82.0187 13.2317 81.8538 12.8703 81.6416 12.556C81.4295 12.2417 81.1702 11.9746 80.8638 11.7546C80.5573 11.5346 80.2116 11.3617 79.8266 11.2517C79.4416 11.1339 79.0095 11.0789 78.538 11.0789C77.658 11.0789 76.8959 11.2988 76.2359 11.731C75.5759 12.1631 75.0573 12.7996 74.688 13.6246C74.3188 14.4496 74.138 15.4631 74.138 16.6574C74.138 17.8517 74.3188 18.8653 74.6802 19.706C75.0416 20.5467 75.5602 21.1831 76.2202 21.6153C76.8802 22.0553 77.6659 22.2753 78.5695 22.2753C79.3866 22.2753 80.0937 22.126 80.6752 21.8353C81.2566 21.5446 81.7045 21.1281 82.0109 20.5938C82.3173 20.0596 82.4745 19.4231 82.4745 18.6924L83.213 18.8024H78.7973V16.076H85.9709V18.2367C85.9709 19.7453 85.6487 21.0338 85.0202 22.1181C84.3837 23.1946 83.5116 24.0274 82.3959 24.6089C81.2802 25.1903 79.9995 25.481 78.5616 25.481C76.9588 25.481 75.5445 25.1274 74.3266 24.4124C73.1088 23.6974 72.1659 22.6838 71.4823 21.3717C70.8066 20.0596 70.4688 18.496 70.4688 16.6889C70.4688 15.2981 70.673 14.0567 71.0737 12.9646C71.4745 11.8724 72.048 10.9453 72.7788 10.191C73.5095 9.42885 74.358 8.85528 75.3323 8.45456C76.3066 8.06171 77.3595 7.85742 78.4909 7.85742C79.4652 7.85742 80.3688 7.99885 81.2016 8.28171C82.0345 8.56456 82.7809 8.95742 83.433 9.47599C84.0852 9.98671 84.6116 10.5996 85.028 11.3067C85.4445 12.0138 85.7038 12.7917 85.8216 13.6403H82.1366Z" fill="#FFFDFA"/>
<path d="M96.8828 19.7687V12.3909H100.45V25.2452H97.0242V22.9116H96.8907C96.6 23.6659 96.1207 24.2709 95.445 24.7266C94.7692 25.1823 93.9521 25.4102 92.9857 25.4102C92.1292 25.4102 91.3671 25.2137 90.715 24.8209C90.0628 24.428 89.5521 23.878 89.1907 23.1552C88.8292 22.4323 88.6407 21.5759 88.6328 20.5702V12.3909H92.2V19.9416C92.2 20.7037 92.4121 21.3009 92.8128 21.7409C93.2135 22.1809 93.7557 22.4009 94.4314 22.4009C94.8635 22.4009 95.2642 22.2987 95.6335 22.1023C96.0107 21.9059 96.3092 21.6073 96.545 21.2223C96.7807 20.8373 96.8907 20.3502 96.8828 19.7766V19.7687Z" fill="#FFFDFA"/>
<path d="M106.962 25.4886C106.145 25.4886 105.414 25.3472 104.77 25.0565C104.125 24.7658 103.622 24.3415 103.253 23.7758C102.884 23.2101 102.695 22.5029 102.695 21.6544C102.695 20.9394 102.829 20.3422 103.088 19.8551C103.347 19.3679 103.709 18.9751 104.157 18.6844C104.612 18.3858 105.123 18.1658 105.705 18.0165C106.286 17.8672 106.891 17.7572 107.527 17.6944C108.274 17.6158 108.879 17.5451 109.335 17.4744C109.79 17.4036 110.12 17.3015 110.332 17.1601C110.545 17.0186 110.639 16.8144 110.639 16.5394V16.4922C110.639 15.9658 110.474 15.5494 110.144 15.2586C109.814 14.9679 109.342 14.8265 108.737 14.8265C108.093 14.8265 107.582 14.9679 107.205 15.2508C106.828 15.5336 106.577 15.8872 106.451 16.3115L103.151 16.0444C103.316 15.2665 103.646 14.5829 104.141 14.0172C104.628 13.4436 105.265 13.0036 106.042 12.6972C106.82 12.3908 107.724 12.2336 108.753 12.2336C109.468 12.2336 110.152 12.3201 110.812 12.4851C111.464 12.6501 112.053 12.9094 112.564 13.2629C113.075 13.6165 113.475 14.0644 113.774 14.6144C114.072 15.1644 114.214 15.8244 114.214 16.5865V25.2608H110.835V23.4772H110.733C110.529 23.8779 110.254 24.2315 109.908 24.5379C109.562 24.8444 109.146 25.0801 108.659 25.2529C108.172 25.4258 107.614 25.5044 106.977 25.5044L106.962 25.4886ZM107.983 23.0294C108.51 23.0294 108.973 22.9272 109.374 22.7151C109.775 22.5029 110.089 22.2201 110.317 21.8665C110.545 21.5051 110.662 21.1044 110.662 20.6565V19.2894C110.552 19.3601 110.395 19.4308 110.207 19.4858C110.018 19.5408 109.798 19.5958 109.555 19.6429C109.311 19.6901 109.075 19.7294 108.832 19.7686C108.596 19.8079 108.376 19.8394 108.18 19.8629C107.763 19.9258 107.394 20.0201 107.08 20.1536C106.765 20.2872 106.522 20.4679 106.349 20.6958C106.176 20.9236 106.09 21.1986 106.09 21.5365C106.09 22.0236 106.27 22.3929 106.624 22.6444C106.977 22.8958 107.425 23.0215 107.975 23.0215L107.983 23.0294Z" fill="#FFFDFA"/>
<path d="M116.969 25.2452V12.391H120.426V14.6302H120.559C120.795 13.8288 121.188 13.2317 121.738 12.8152C122.288 12.4067 122.924 12.2024 123.647 12.2024C123.828 12.2024 124.017 12.2102 124.229 12.2338C124.433 12.2574 124.614 12.2888 124.771 12.3281V15.4945C124.606 15.4474 124.37 15.4002 124.079 15.361C123.781 15.3217 123.514 15.306 123.27 15.306C122.744 15.306 122.28 15.416 121.872 15.6438C121.463 15.8717 121.133 16.186 120.897 16.5867C120.662 16.9874 120.544 17.451 120.544 17.9774V25.2531H116.977L116.969 25.2452Z" fill="#FFFDFA"/>
<path d="M130.741 25.4575C129.766 25.4575 128.878 25.2061 128.093 24.7032C127.307 24.2004 126.678 23.4539 126.223 22.4718C125.759 21.4896 125.531 20.2796 125.531 18.8418C125.531 17.4039 125.767 16.1389 126.238 15.1646C126.71 14.1904 127.346 13.4518 128.132 12.9646C128.918 12.4775 129.79 12.2339 130.733 12.2339C131.456 12.2339 132.053 12.3596 132.54 12.5954C133.019 12.8389 133.412 13.1375 133.711 13.4989C134.009 13.8604 134.237 14.2139 134.394 14.5596H134.504V8.10107H138.063V25.2454H134.551V23.1868H134.402C134.237 23.5482 134.001 23.8939 133.695 24.2475C133.388 24.5932 132.996 24.8839 132.516 25.1118C132.029 25.3396 131.448 25.4575 130.756 25.4575H130.741ZM131.872 22.6211C132.446 22.6211 132.933 22.4639 133.333 22.1496C133.734 21.8354 134.041 21.3954 134.253 20.8218C134.465 20.2482 134.575 19.5882 134.575 18.8182C134.575 18.0482 134.473 17.3882 134.261 16.8225C134.048 16.2568 133.742 15.8246 133.341 15.5182C132.941 15.2118 132.453 15.0546 131.872 15.0546C131.291 15.0546 130.796 15.2118 130.395 15.5339C129.994 15.8561 129.688 16.2961 129.483 16.8539C129.279 17.4196 129.177 18.0718 129.177 18.8104C129.177 19.5489 129.279 20.2168 129.491 20.7904C129.703 21.3639 130.002 21.8118 130.403 22.1261C130.803 22.4482 131.291 22.6054 131.88 22.6054L131.872 22.6211Z" fill="#FFFDFA"/>
<defs>
<radialGradient id="paint0_radial_669_1658" cx="0" cy="0" r="1" gradientUnits="userSpaceOnUse" gradientTransform="translate(16.5 16.5) scale(16.5 16.5)">
<stop offset="0.473958" stop-color="#FFC640"/>
<stop offset="1" stop-color="#F2AF13"/>
</radialGradient>
</defs>
</svg>
