<svg width="1440" height="476" viewBox="0 0 1440 476" fill="none" xmlns="http://www.w3.org/2000/svg">
<g opacity="0.4" clip-path="url(#clip0_61_41)">
<path d="M1439.74 475.348C1247.45 475.714 1055.16 475.291 862.869 475.225C689.839 475.163 516.809 475.392 343.78 475.34C229.271 475.304 114.758 475.392 0.248979 475.348" stroke="#FFC640" stroke-width="0.5" stroke-miterlimit="10"/>
<path d="M1439.74 470.834C1337.34 474.419 1234.94 470.759 1132.53 469.874C1043.29 469.103 954.073 467.636 864.834 466.795C781.315 466.007 698.053 471.191 614.57 471.715C524.303 472.279 434.042 469.913 343.78 469.671C229.266 469.363 114.762 471.495 0.248979 470.988" stroke="#FFC640" stroke-width="0.5" stroke-miterlimit="10"/>
<path d="M1439.74 467.857C1337.3 474.362 1234.93 466.817 1132.49 464.637C1086.22 463.65 1039.96 463.998 993.695 462.29C952.638 460.77 911.598 458.634 870.519 457.709C830.551 456.806 790.529 457.119 750.645 460.026C708.112 463.122 665.899 466.571 623.211 467.196C530.06 468.561 436.931 464.117 343.78 464.095C229.253 464.069 114.78 468.804 0.248979 468.385" stroke="#FFC640" stroke-width="0.5" stroke-miterlimit="10"/>
<path d="M1439.74 465.751C1337.19 474.908 1234.93 463.254 1132.45 459.519C1086.85 457.859 1041.29 458.264 995.709 455.516C956.634 453.159 917.612 449.83 878.489 448.306C840.423 446.826 802.263 447.227 764.371 451.367C720.949 456.106 678.261 461.277 634.487 462.316C537.567 464.619 440.696 458.066 343.771 458.55C229.209 459.119 114.811 466.773 0.240274 466.764" stroke="#FFC640" stroke-width="0.5" stroke-miterlimit="10"/>
<path d="M1439.74 463.862C1337.01 475.595 1234.95 459.788 1132.41 454.437C1087.59 452.098 1042.83 452.604 998.078 448.773C961.159 445.61 924.351 441.092 887.343 438.978C851.339 436.921 815.202 437.484 779.492 442.823C758.717 445.928 738.257 450.358 717.349 452.723C693.915 455.37 670.353 456.775 646.786 457.52C545.745 460.713 444.816 451.917 343.78 453.019C229.169 454.265 114.887 464.919 0.248979 465.395" stroke="#FFC640" stroke-width="0.5" stroke-miterlimit="10"/>
<path d="M1439.74 461.541C1336.24 476.031 1233.95 455.925 1130.78 449.187C1087.62 446.368 1044.52 447.055 1001.46 442.338C966.03 438.458 930.8 432.688 895.246 430.054C861.282 427.54 827.186 428.438 793.698 434.974C772.941 439.026 752.668 444.377 731.657 447.262C707.552 450.57 683.239 452.296 658.93 453.212C554.28 457.15 449.843 445.923 345.215 447.443C230.058 449.116 115.438 462.717 0.248979 463.532" stroke="#FFC640" stroke-width="0.5" stroke-miterlimit="10"/>
<path d="M1439.74 458.132C1336 475.599 1234.03 451.776 1130.74 443.866C1088.02 440.594 1045.37 441.673 1002.78 436.119C969.022 431.719 935.552 424.963 901.611 421.973C869.123 419.11 836.573 420.576 804.846 428.407C784.146 433.516 764.104 439.66 742.956 442.999C718.273 446.897 693.302 448.852 668.344 449.856C560.485 454.19 453.017 440.171 345.215 441.836C229.991 443.615 115.518 459.682 0.248979 460.431" stroke="#FFC640" stroke-width="0.5" stroke-miterlimit="10"/>
<path d="M1439.74 453.186C1335.91 471.627 1233.9 447.791 1130.55 438.828C1088.22 435.155 1045.97 435.525 1003.82 429.416C970.982 424.655 938.401 417.647 905.3 414.838C873.635 412.146 842.009 414.296 811.366 422.928C790.671 428.76 770.625 434.978 749.303 438.467C724.251 442.563 698.88 444.597 673.527 445.628C563.836 450.085 454.661 434.785 345.055 436.295C229.889 437.885 115.304 451.204 0.24453 455.212" stroke="#FFC640" stroke-width="0.5" stroke-miterlimit="10"/>
<path d="M1439.74 449.812C1335.94 462.505 1233.04 446.637 1129.95 435.322C1087.92 430.706 1045.99 426.936 1004.16 420.572C970.275 415.415 936.334 409.667 902.046 407.967C869.683 406.359 837.311 408.865 805.855 416.784C759.984 428.337 714.313 434.683 666.984 436.855C558.698 441.827 450.572 431.301 342.304 431.891C228.035 432.512 113.775 430.006 0.244529 445.417" stroke="#FFC640" stroke-width="0.5" stroke-miterlimit="10"/>
<path d="M1439.74 448.5C1336.24 454.824 1232.85 446.46 1130.34 432.243C1051 421.241 972.08 402.792 891.676 401.352C856.429 400.717 821.181 403.695 786.689 411.023C740.72 420.797 694.555 426.284 647.591 428.738C544.15 434.137 440.029 429.98 336.521 428.139C284.641 427.214 233 421.805 181.2 419.29C120.372 416.335 59.8549 418.612 0.240272 431.768" stroke="#FFC640" stroke-width="0.5" stroke-miterlimit="10"/>
<path d="M1439.74 448.275C1335.75 447.936 1230.94 446.672 1128.21 428.958C1084.09 421.351 1040.9 409.574 996.558 403.021C956.229 397.062 915.452 393.992 874.67 394.428C836.196 394.842 797.787 398.383 759.868 404.857C715.362 412.455 670.624 417.308 625.553 420.193C576.508 423.333 527.353 424.518 478.21 424.923C430.014 425.32 381.414 426.478 333.259 424.346C281.609 422.061 230.915 411.341 179.728 404.976C119.082 397.441 59.1568 398.577 0.248976 416.08" stroke="#FFC640" stroke-width="0.5" stroke-miterlimit="10"/>
<path d="M1439.74 448.16C1336.03 441.074 1230.37 447.029 1128.05 425.985C1081.77 416.467 1037.55 400.678 990.597 393.794C945.895 387.24 900.602 385.399 855.464 386.822C771.18 389.478 687.67 403.8 603.662 410.46C558.502 414.04 513.262 416.67 467.987 418.326C422.316 419.995 375.454 422.968 329.832 419.594C279.071 415.837 230.373 400.343 180.733 390.319C119.411 377.934 59.4324 378.255 0.248975 400.193" stroke="#FFC640" stroke-width="0.5" stroke-miterlimit="10"/>
<path d="M1439.74 447.178C1336.42 433.595 1229.82 447.02 1127.86 422.919C1104.55 417.41 1082.7 408.394 1059.95 401.167C1035.7 393.463 1010.79 387.883 985.623 384.065C937.885 376.824 889.392 375.921 841.214 377.934C755.361 381.519 669.26 390.662 583.749 398.956C543.181 402.893 502.621 406.958 461.96 409.848C418.765 412.917 373.609 417.269 330.396 413.182C279.782 408.394 232.48 388.773 183.804 375.657C156.366 368.266 128.199 362.994 99.6673 363.109C64.944 363.254 31.7942 371.882 0.248974 385.915" stroke="#FFC640" stroke-width="0.5" stroke-miterlimit="10"/>
<path d="M1439.74 444.351C1336.67 424.769 1228.97 446.342 1127.15 419.471C1104.04 413.375 1083.18 403.047 1061.03 394.494C1036.06 384.853 1010.01 378.15 983.61 373.728C933.694 365.364 882.787 365.073 832.342 367.386C785.675 369.526 739.164 374.155 692.502 376.3C652.827 378.128 613.468 379.977 573.993 384.628C536.958 388.993 500.079 394.565 463.018 398.713C421.849 403.32 378.547 408.302 337.157 404.404C285.352 399.524 237.952 376.397 188.88 361.114C161.598 352.614 133.386 346.58 104.663 346.765C67.5932 347.007 32.8254 358.123 0.244524 375.106" stroke="#FFC640" stroke-width="0.5" stroke-miterlimit="10"/>
<path d="M1439.74 439.352C1336.83 421.422 1229.72 439.295 1128.06 413.433C1104.26 407.377 1082.6 397.159 1059.74 388.566C1034.92 379.237 1009.12 372.618 982.974 368.121C933.574 359.625 883.196 358.586 833.186 359.916C786.689 361.153 740.28 364.637 693.777 365.633C655.707 366.447 618.161 366.425 580.238 370.627C505.084 378.96 430.823 393.56 354.803 391.195C299.669 389.478 248.877 365.835 196.877 350.319C168.278 341.788 138.8 335.653 108.802 336.08C70.1001 336.635 33.9811 348.645 0.248973 366.897" stroke="#FFC640" stroke-width="0.5" stroke-miterlimit="10"/>
<path d="M1439.74 435.251C1336.07 425.637 1230.24 427.799 1128.27 404.611C1080.28 393.697 1034.67 376 985.943 367.61C939.454 359.607 892.281 356.313 845.152 355.225C799.734 354.181 754.312 355.23 708.899 355.842C671.255 356.348 634.136 355.41 596.559 358.987C559.671 362.497 523.028 368.015 486.233 372.336C446.474 377.009 406.639 379.18 366.64 379.977C308.621 381.131 254.455 357.309 200.099 340.568C171.132 331.649 141.449 324.558 111.024 323.365C72.1047 321.836 35.1101 331.314 0.248972 348.09" stroke="#FFC640" stroke-width="0.5" stroke-miterlimit="10"/>
<path d="M1439.74 432.155C1335.04 430.631 1230.94 416.727 1128.45 395.965C1082.53 386.663 1037.19 374.873 991.086 366.421C947.78 358.48 904.095 352.6 860.216 348.821C817.878 345.179 775.385 343.461 732.888 343.356C693.155 343.254 654.045 343.166 614.437 347.196C531.798 355.604 450.052 371.838 366.764 373.459C308.696 374.591 254.549 349.579 201.25 330.05C170.954 318.951 139.898 309.002 107.673 305.377C70.6468 301.211 34.7234 306.796 0.24452 320.541" stroke="#FFC640" stroke-width="0.5" stroke-miterlimit="10"/>
<path d="M1439.74 429.526C1334.11 436.062 1232.46 406.038 1129.6 387.575C1085.17 379.599 1040.54 373.666 996.26 364.725C957.425 356.886 918.706 348.399 879.631 341.783C797.921 327.945 715.842 325.941 633.523 335.564C588.687 340.806 544.154 348.205 499.537 354.952C454.452 361.77 408.008 369.865 362.288 370.068C302.967 370.332 248.513 341.603 195.828 318.035C133.222 290.028 68.6822 268.443 0.248967 288.87" stroke="#FFC640" stroke-width="0.5" stroke-miterlimit="10"/>
<path d="M1439.74 426.839C1332.51 441.633 1233.17 394.952 1129.23 378.916C1107.34 375.538 1085.44 375.208 1063.45 373.133C1042.95 371.195 1022.62 367.786 1002.52 363.329C966.617 355.366 931.662 343.919 896.183 334.358C860.856 324.835 824.928 317.679 788.284 315.987C743.489 313.922 698.427 318.436 654.063 324.228C602.902 330.909 552.097 339.973 501.252 348.632C476.961 352.768 452.657 356.833 428.277 360.449C404.608 363.959 380.205 368.447 356.221 368.407C296.339 368.31 241.881 335.525 190.947 308.064C132.008 276.287 69.2689 244.69 0.244515 257.723" stroke="#FFC640" stroke-width="0.5" stroke-miterlimit="10"/>
<path d="M1439.74 423.562C1331.68 446.822 1235.13 384.36 1130.8 370.473C1107.91 367.425 1085.66 369.389 1062.73 369.116C1043.52 368.892 1024.42 366.417 1005.75 361.946C973.426 354.212 943.108 340.616 912.234 328.702C879.333 316.009 845.525 306.201 810.126 303.946C762.424 300.902 713.415 307.901 666.308 314.617C611.641 322.409 557.342 332.512 503.057 342.541C476.019 347.535 448.976 352.547 421.876 357.194C397.687 361.343 372.453 367.315 347.811 366.998C287.779 366.227 233.916 330.376 184.827 300.004C129.141 265.554 68.8422 226.144 0.248962 231.72" stroke="#FFC640" stroke-width="0.5" stroke-miterlimit="10"/>
<path d="M1439.74 419.167C1330 451.547 1235.76 371.948 1129.86 361.545C1106.43 359.242 1084.69 363.62 1061.52 365.496C1043.69 366.941 1025.73 365.76 1008.29 361.761C976.822 354.547 948.771 338.511 920.119 324.395C889.027 309.077 856.695 297.388 821.794 294.939C773.185 291.53 722.842 299.317 674.882 306.293C617.481 314.644 560.454 325.364 503.51 336.313C475.437 341.713 447.385 347.205 419.289 352.486C394.989 357.057 369.724 363.668 344.931 364.404C283.996 366.21 228.662 327.945 180.275 295.882C126.345 260.145 68.0687 215.917 0.253301 215.512" stroke="#FFC640" stroke-width="0.5" stroke-miterlimit="10"/>
<path d="M1439.74 413.93C1329.73 453.886 1237.24 365.901 1131.53 354.371C1107.46 351.746 1085.61 356.379 1061.93 359.215C1043.5 361.422 1024.82 360.695 1006.71 356.591C974.835 349.363 946.886 332.217 918.261 317.322C887.534 301.33 855.415 289.275 820.478 287.047C772.096 283.959 722.54 291.402 674.9 298.916C616.961 308.055 559.502 319.938 502.044 331.623C474.268 337.273 446.492 342.924 418.631 348.121C394.455 352.631 369.502 358.361 344.895 359.718C283.929 363.083 228.422 322.448 181.262 289.354C127.897 251.909 69.1622 203.316 0.24896 203.752" stroke="#FFC640" stroke-width="0.5" stroke-miterlimit="10"/>
<path d="M1439.74 409.57C1326.32 456.124 1233.46 358.057 1124.98 345.135C1100.45 342.21 1078.21 347.073 1054.04 349.53C1035.73 351.393 1017.24 350.284 999.358 345.866C967.502 337.991 939.659 320.356 911.109 305.007C880.178 288.381 847.694 275.639 812.229 273.393C764.873 270.398 716.42 279.022 670.118 287.892C613.037 298.828 556.618 312.865 500.044 326.086C472.174 332.6 444.256 338.982 416.164 344.492C392.642 349.108 367.826 354.913 343.753 355.115C280.76 355.644 225.568 307.606 179.493 270.759C128.399 229.901 70.1847 175.226 0.240252 175.468" stroke="#FFC640" stroke-width="0.5" stroke-miterlimit="10"/>
<path d="M1439.74 405.831C1411.14 418.564 1381.22 423.725 1350.02 419.409C1321.88 415.516 1295.12 405.183 1269.41 393.565C1220.57 371.499 1173.03 342.972 1119.2 334.719C1093.2 330.733 1069.64 335.432 1043.92 337.604C1025.04 339.198 1006.07 337.529 987.828 332.437C956.034 323.567 928.364 305.28 899.904 289.332C868.785 271.896 835.987 258.366 799.948 255.86C753.268 252.614 705.05 263.805 660.001 274.574C604.378 287.87 549.653 304.54 494.545 319.731C467.867 327.086 441.096 334.181 414.049 340.074C391.38 345.016 366.915 351.222 343.553 350.019C314.497 348.522 287.445 334.701 263.825 318.793C233.36 298.273 206.358 273.014 179.568 248.099C152.019 222.479 124.741 196.168 94.2046 174.001C66.3263 153.763 35.4923 137.005 0.244505 135.939" stroke="#FFC640" stroke-width="0.5" stroke-miterlimit="10"/>
<path d="M1439.74 402.338C1410.86 416.009 1380.61 422.047 1348.72 417.758C1319.3 413.802 1291.51 402.21 1265.07 389.301C1214.96 364.835 1166.55 333.367 1110.69 323.426C1084.16 318.705 1059.91 322.845 1033.52 324.752C1014.07 326.157 994.548 323.981 975.916 318.282C943.619 308.407 915.701 289.033 886.871 272.195C856.251 254.314 823.861 240.066 788.066 236.925C741.653 232.856 693.137 246.91 649.08 259.762C595.23 275.468 542.528 294.714 489.171 311.926C463.787 320.114 438.237 327.927 412.306 334.252C389.815 339.735 364.87 346.835 341.579 343.677C311.256 339.568 284.241 321.832 261.078 303.012C231.164 278.709 204.9 250.266 178.719 222.153C151.903 193.358 125.332 163.977 95.258 138.432C68.0199 115.296 36.9547 94.6003 0.248951 91.9181" stroke="#FFC640" stroke-width="0.5" stroke-miterlimit="10"/>
<path d="M1439.74 398.718C1409.75 413.758 1377.85 420.797 1344.34 415.674C1314.65 411.133 1286.85 398.687 1260.49 384.888C1209.14 358.013 1159.71 323.316 1101.66 312.244C1074.55 307.073 1049.79 310.949 1022.72 312.42C1003.3 313.472 983.89 310.874 965.417 304.853C932.485 294.115 904.193 273.679 874.919 255.904C844.121 237.199 811.371 222.065 774.981 218.63C729.021 214.296 680.901 230.469 638.034 245.034C586.465 262.559 536.256 283.721 485.113 302.396C459.968 311.574 434.579 320.264 408.652 327.029C386.908 332.702 362.257 339.969 339.752 335.556C308.229 329.376 281.271 308.038 258.487 286.716C229.08 259.194 203.517 227.835 177.937 196.882C151.028 164.325 124.399 131.138 93.6667 101.986C67.5887 77.2473 37.2392 54.0234 0.248947 50.1697" stroke="#FFC640" stroke-width="0.5" stroke-miterlimit="10"/>
<path d="M1439.74 394.604C1409.88 410.605 1377.79 418.933 1343.81 414.023C1314.09 409.728 1286.37 396.943 1260.33 382.655C1207.11 353.468 1156.67 315.128 1095.97 302.558C1082.51 299.771 1068.87 298.335 1055.11 298.454C1041.14 298.573 1027.46 301.321 1013.53 301.801C994.282 302.466 975.173 299.467 957.003 293.182C923.688 281.656 895.21 260.427 865.634 241.973C834.755 222.704 801.819 206.989 765.042 203.457C719.14 199.048 671.669 215.732 629.336 231.424C578.802 250.16 529.873 272.838 479.668 292.389C455.417 301.832 430.823 310.662 405.612 317.269C383.632 323.025 358.399 329.896 335.765 324.571C304.509 317.216 278.422 294.199 256.656 271.979C226.999 241.7 201.57 207.536 176.03 173.869C149.974 139.529 124.154 104.651 94.1023 73.5785C68.6377 47.2496 38.2481 21.3214 0.248944 17.4456" stroke="#FFC640" stroke-width="0.5" stroke-miterlimit="10"/>
<path d="M1439.74 389.618C1409.45 407.244 1376.42 417.211 1341.13 411.847C1311.66 407.368 1284.55 394.217 1259.01 379.489C1206.23 349.046 1156.74 309.363 1096.01 295.547C1081.51 292.248 1066.63 290.557 1051.75 290.777C1037.77 290.984 1024.06 293.697 1010.11 294.111C991.041 294.679 972.12 291.579 954.153 285.254C920.452 273.393 891.765 251.614 861.918 232.724C830.955 213.129 797.841 197.071 760.757 193.724C714.771 189.57 668.642 203.893 626.082 219.617C575.593 238.264 526.953 261.413 476.752 280.779C452.057 290.306 426.921 299.013 401.083 304.976C379.13 310.041 353.883 315.084 331.463 310.403C300.771 303.994 275.382 281.035 254.504 259.158C224.581 227.8 199.357 192.217 173.95 157.278C148.054 121.665 122.447 85.2851 91.8977 53.3627C67.2998 27.6591 37.617 2.16701 0.244494 0.510989" stroke="#FFC640" stroke-width="0.5" stroke-miterlimit="10"/>
<rect y="439" width="1440" height="93" fill="url(#paint0_linear_61_41)"/>
<rect x="1330" y="-4.99999" width="110" height="469" fill="url(#paint1_linear_61_41)"/>
<rect width="110" height="469" transform="matrix(-1 0 0 1 110 -1.00001)" fill="url(#paint2_linear_61_41)"/>
</g>
<defs>
<linearGradient id="paint0_linear_61_41" x1="720" y1="439" x2="720" y2="504.239" gradientUnits="userSpaceOnUse">
<stop stop-color="#111111" stop-opacity="0"/>
<stop offset="0.442708" stop-color="#111111"/>
</linearGradient>
<linearGradient id="paint1_linear_61_41" x1="1435" y1="218.5" x2="1324.77" y2="221.095" gradientUnits="userSpaceOnUse">
<stop stop-color="#111111"/>
<stop offset="1" stop-color="#111111" stop-opacity="0"/>
</linearGradient>
<linearGradient id="paint2_linear_61_41" x1="105" y1="223.5" x2="-5.22505" y2="226.095" gradientUnits="userSpaceOnUse">
<stop stop-color="#111111"/>
<stop offset="1" stop-color="#111111" stop-opacity="0"/>
</linearGradient>
<clipPath id="clip0_61_41">
<rect width="1440" height="476" fill="white" transform="translate(1440 476) rotate(180)"/>
</clipPath>
</defs>
</svg>
