<svg width="82" height="82" viewBox="0 0 82 82" fill="none" xmlns="http://www.w3.org/2000/svg">
<path fill-rule="evenodd" clip-rule="evenodd" d="M41.0002 6.42829C21.9069 6.42829 6.42878 21.9064 6.42878 40.9997C6.42878 60.093 21.9069 75.5712 41.0002 75.5712C60.0935 75.5712 75.5716 60.093 75.5716 40.9997C75.5716 21.9064 60.0935 6.42829 41.0002 6.42829ZM0.143066 40.9997C0.143066 18.4349 18.4354 0.142578 41.0002 0.142578C63.565 0.142578 81.8573 18.4349 81.8573 40.9997C81.8573 63.5645 63.565 81.8569 41.0002 81.8569C18.4354 81.8569 0.143066 63.5645 0.143066 40.9997Z" fill="#148919"/>
<path fill-rule="evenodd" clip-rule="evenodd" d="M62.1835 28.1107C63.3508 29.3953 63.2556 31.383 61.971 32.5502L37.5484 54.7419C35.0316 57.0288 31.1524 56.8994 28.7936 54.4499L22.5732 47.9902C21.3692 46.7399 21.4067 44.7503 22.657 43.5464C23.9073 42.3424 25.8969 42.3799 27.1009 43.6302L33.3213 50.0899L57.7439 27.8982C59.0285 26.7309 61.0162 26.826 62.1835 28.1107Z" fill="#148919"/>
</svg>
