<svg width="143" height="102" viewBox="0 0 143 102" fill="none" xmlns="http://www.w3.org/2000/svg">
<path d="M84.5067 17.7873C84.5067 20.4763 84.4883 22.8725 84.4513 25.0311C84.3404 37.1774 88.2828 46.7078 96.2784 53.6224C98.2188 55.3054 100.455 57.2262 103.024 59.531C105.389 57.4091 107.459 55.5798 109.27 53.9883C117.66 46.6103 121.762 37.5921 121.577 26.9336C121.54 24.3177 121.485 21.2994 121.467 17.7506C113.613 18.6653 107.477 17.4031 102.95 13.9824C97.3687 17.4397 91.1965 18.7202 84.4883 17.7873H84.5067ZM103.061 62.3297C102.765 62.3297 102.488 62.22 102.247 62.0188C99.3276 59.4029 96.8328 57.2444 94.7261 55.4152C86.2443 47.1679 82.5479 39.9453 82.0674 25.0129C82.0859 22.5068 82.1228 19.6531 82.1228 16.397C82.1228 16.0494 82.2892 15.7019 82.5479 15.4824C82.8251 15.2629 83.1947 15.1531 83.5273 15.2262C90.4203 16.4884 96.7589 15.2445 102.395 11.5311C102.839 11.2384 103.43 11.2751 103.837 11.6043C108.143 15.2263 114.241 16.397 122.52 15.2079C122.871 15.1714 123.222 15.2629 123.481 15.4824C123.74 15.7019 123.887 16.0311 123.887 16.3787C123.887 20.4945 123.943 23.9335 123.998 26.8603C123.481 39.9453 120.482 45.5011 110.896 55.7444C108.882 57.5188 106.553 59.5675 103.874 61.9822C103.652 62.1834 103.356 62.2931 103.061 62.2931V62.3297Z" fill="#FFC640"/>
<path d="M73.5461 70.4214H42.4832C41.8115 70.4214 41.2705 69.8803 41.2705 69.2087C41.2705 68.537 41.8115 67.9961 42.4832 67.9961H73.5461C74.2177 67.9961 74.7588 68.537 74.7588 69.2087C74.7588 69.8803 74.2177 70.4214 73.5461 70.4214ZM84.3295 70.4214H78.2848C77.6132 70.4214 77.0722 69.8803 77.0722 69.2087C77.0722 68.537 77.6132 67.9961 78.2848 67.9961H84.3295C85.0011 67.9961 85.5421 68.537 85.5421 69.2087C85.5421 69.8803 85.0011 70.4214 84.3295 70.4214Z" fill="#FFC640"/>
<path d="M84.3291 75.7572H53.2476C52.5759 75.7572 52.0349 75.2161 52.0349 74.5445C52.0349 73.8728 52.5759 73.3319 53.2476 73.3319H84.3291C85.0008 73.3319 85.5418 73.8728 85.5418 74.5445C85.5418 75.2161 85.0008 75.7572 84.3291 75.7572Z" fill="#FFC640"/>
<path d="M48.5278 75.7572H42.4832C41.8115 75.7572 41.2705 75.2161 41.2705 74.5445C41.2705 73.8728 41.8115 73.3319 42.4832 73.3319H48.5278C49.1995 73.3319 49.7405 73.8728 49.7405 74.5445C49.7405 75.2161 49.1995 75.7572 48.5278 75.7572Z" fill="#FFC640"/>
<path d="M95.7582 32.5244V42.3813C95.7582 42.6477 95.9577 42.8761 96.2116 42.8761H109.179C109.488 42.8761 109.742 42.6097 109.742 42.2862V32.5434H95.7582V32.5244ZM109.179 45.3307H96.2116C94.67 45.3307 93.4004 43.9987 93.4004 42.3623V31.2684C93.4004 30.5834 93.9264 30.0316 94.5793 30.0316H110.92C111.573 30.0316 112.099 30.5834 112.099 31.2684V42.2481C112.099 43.9417 110.793 45.3117 109.179 45.3117V45.3307Z" fill="#FFC640"/>
<path d="M98.6888 29.9092H106.811V28.4389C106.811 26.2704 104.997 24.4879 102.75 24.4879C100.502 24.4879 98.6888 26.2704 98.6888 28.4389V29.9092ZM108.038 32.2982H97.4611C96.7811 32.2982 96.2334 31.7653 96.2334 31.1037V28.4389C96.2334 24.9472 99.161 22.0988 102.75 22.0988C106.338 22.0988 109.266 24.9472 109.266 28.4389V31.1037C109.266 31.7653 108.718 32.2982 108.038 32.2982Z" fill="#FFC640"/>
<path d="M103.043 36.4331C102.518 36.4331 102.069 36.8639 102.069 37.4071C102.069 37.9503 102.5 38.3624 103.043 38.3624C103.586 38.3624 103.998 37.9316 103.998 37.4071C103.998 36.8826 103.567 36.4331 103.043 36.4331ZM103.043 40.7976C101.17 40.7976 99.6338 39.2803 99.6338 37.4071C99.6338 35.5339 101.151 33.998 103.043 33.998C104.935 33.998 106.433 35.5339 106.433 37.4071C106.433 39.2803 104.916 40.7976 103.043 40.7976Z" fill="#FFC640"/>
<path d="M22.3617 84.6948V89.4092C22.3617 91.7947 26.1072 94.1236 28.9007 94.1236H124.803C127.597 94.1236 131.342 91.7947 131.342 89.4092V84.6948H22.3617ZM124.803 96.5544H28.9007C24.8379 96.5544 19.9365 93.3699 19.9365 89.4092V83.4765C19.9365 82.8079 20.4805 82.2639 21.1491 82.2639H132.555C133.229 82.2639 133.768 82.8079 133.768 83.4765V89.4092C133.768 93.5513 128.419 96.5544 124.803 96.5544Z" fill="#FFC640"/>
<path d="M95.4117 101.83H23.7722C23.1035 101.83 22.5596 101.286 22.5596 100.617C22.5596 99.9486 23.1035 99.4046 23.7722 99.4046H95.4117C96.0803 99.4046 96.63 99.9486 96.63 100.617C96.63 101.286 96.0803 101.83 95.4117 101.83Z" fill="#FFC640"/>
<path d="M126.566 101.592H120.367C119.704 101.592 119.154 101.048 119.154 100.374C119.154 99.6993 119.704 99.161 120.367 99.161H126.566C127.24 99.161 127.778 99.705 127.778 100.374C127.778 101.042 127.24 101.592 126.566 101.592Z" fill="#FFC640"/>
<path d="M21.9568 65.2082L21.9568 59.0093C21.9568 58.3463 22.5008 57.7967 23.1751 57.7967C23.8494 57.7967 24.3877 58.3463 24.3877 59.0093L24.3877 65.2082C24.3877 65.8825 23.8437 66.4208 23.1751 66.4208C22.5065 66.4208 21.9568 65.8825 21.9568 65.2082Z" fill="#FFC640"/>
<path d="M76.8486 87.902C76.0214 87.902 75.3471 88.5763 75.3471 89.4092C75.3471 90.2422 76.0214 90.9165 76.8486 90.9165C77.6759 90.9165 78.3559 90.2422 78.3559 89.4092C78.3559 88.5763 77.6816 87.902 76.8486 87.902ZM76.8486 93.3417C74.6841 93.3417 72.9219 91.5794 72.9219 89.4092C72.9219 87.239 74.6841 85.4768 76.8486 85.4768C79.0132 85.4768 80.7754 87.2447 80.7754 89.4092C80.7754 91.5738 79.0132 93.3417 76.8486 93.3417Z" fill="#FFC640"/>
<path d="M74.7528 45.41C74.7528 44.747 75.2968 44.1974 75.9654 44.1974L77.178 44.1974C77.8466 44.1974 78.3906 44.747 78.3906 45.41C78.3906 46.073 77.8466 46.6226 77.178 46.6226L75.9654 46.6226C75.2968 46.6226 74.7528 46.0843 74.7528 45.41ZM69.1772 45.41C69.1772 44.747 69.7211 44.1974 70.3897 44.1974L71.608 44.1974C72.2766 44.1974 72.8206 44.747 72.8206 45.41C72.8206 46.073 72.2766 46.6226 71.608 46.6226L70.3897 46.6226C69.7211 46.6226 69.1772 46.0843 69.1772 45.41ZM63.5958 45.41C63.5958 44.747 64.1398 44.1974 64.8084 44.1974L66.021 44.1974C66.6896 44.1974 67.2336 44.747 67.2336 45.41C67.2336 46.073 66.6896 46.6226 66.021 46.6226L64.8084 46.6226C64.1398 46.6226 63.5958 46.0843 63.5958 45.41ZM58.0145 45.41C58.0145 44.747 58.5584 44.1974 59.2271 44.1974L60.4397 44.1974C61.1083 44.1974 61.6523 44.747 61.6523 45.41C61.6523 46.073 61.1083 46.6226 60.4397 46.6226L59.2271 46.6226C58.5584 46.6226 58.0145 46.0843 58.0145 45.41ZM52.4331 45.41C52.4331 44.747 52.9771 44.1974 53.6457 44.1974L54.8583 44.1974C55.5269 44.1974 56.0766 44.747 56.0766 45.41C56.0766 46.073 55.5326 46.6226 54.8583 46.6226L53.6457 46.6226C52.9771 46.6226 52.4331 46.0843 52.4331 45.41ZM46.8518 45.41C46.8518 44.747 47.3957 44.1974 48.0644 44.1974L49.2826 44.1974C49.9513 44.1974 50.4952 44.747 50.4952 45.41C50.4952 46.073 49.9513 46.6226 49.2826 46.6226L48.0644 46.6226C47.3957 46.6226 46.8518 46.0843 46.8518 45.41ZM41.2704 45.41C41.2704 44.747 41.8144 44.1974 42.483 44.1974L43.6956 44.1974C44.3642 44.1974 44.9082 44.747 44.9082 45.41C44.9082 46.073 44.3642 46.6226 43.6956 46.6226L42.483 46.6226C41.8144 46.6226 41.2704 46.0843 41.2704 45.41Z" fill="#FFC640"/>
<path d="M23.4438 55.0202C22.7752 55.0202 22.2312 54.4762 22.2312 53.8076V26.6318C22.2312 23.674 24.6394 21.2658 27.5972 21.2658H35.7624C36.4311 21.2658 36.975 21.8098 36.975 22.4784C36.975 23.147 36.4311 23.691 35.7624 23.691H27.5972C25.9767 23.691 24.6564 25.0113 24.6564 26.6318V53.8076C24.6564 54.4762 24.1181 55.0202 23.4438 55.0202Z" fill="#FFC640"/>
<path d="M111.556 4.53317C113.024 4.53317 114.219 5.72311 114.219 7.19069C114.219 8.65827 113.024 9.84253 111.556 9.84253C110.088 9.84253 108.898 8.65827 108.898 7.19069C108.898 5.72311 110.094 4.53317 111.556 4.53317Z" fill="#FFC640"/>
<path d="M20.594 73.0957C22.0616 73.0957 23.2459 74.2857 23.2459 75.7533C23.2459 77.2208 22.0616 78.4051 20.594 78.4051C19.1265 78.4051 17.9365 77.2208 17.9365 75.7533C17.9365 74.2857 19.1265 73.0957 20.594 73.0957Z" fill="#FFC640"/>
<path d="M9.25366 70.2626C11.4183 70.2626 13.165 72.0094 13.165 74.174C13.165 76.3386 11.4183 78.0936 9.25366 78.0936C7.08906 78.0936 5.33398 76.3386 5.33398 74.174C5.33398 72.0094 7.08906 70.2626 9.25366 70.2626Z" fill="#FFC640"/>
<path d="M5.98026 85.0462C4.51268 85.0462 3.32841 86.2361 3.32841 87.7037C3.32841 89.1713 4.51268 90.3612 5.98026 90.3612C7.44784 90.3612 8.63777 89.1656 8.63777 87.7037C8.63777 86.2418 7.44217 85.0462 5.98026 85.0462ZM5.98026 93.0187C3.05076 93.0187 0.670898 90.6332 0.670898 87.7037C0.670898 84.7742 3.05076 82.3943 5.98026 82.3943C8.90976 82.3943 11.2953 84.7742 11.2953 87.7037C11.2953 90.6332 8.91542 93.0187 5.98026 93.0187Z" fill="#FFC640"/>
<path d="M135.938 16.8176C133.734 16.8176 131.949 18.6082 131.949 20.8067C131.949 23.0053 133.734 24.7958 135.938 24.7958C138.142 24.7958 139.921 23.0053 139.921 20.8067C139.921 18.6082 138.131 16.8176 135.938 16.8176ZM135.938 27.442C132.272 27.442 129.297 24.4672 129.297 20.8011C129.297 17.1349 132.272 14.1658 135.938 14.1658C139.604 14.1658 142.573 17.1463 142.573 20.8011C142.573 24.4559 139.593 27.442 135.938 27.442Z" fill="#FFC640"/>
<path d="M127.114 0C129.278 0 131.025 1.74673 131.025 3.91132C131.025 6.07592 129.278 7.831 127.114 7.831C124.949 7.831 123.194 6.07592 123.194 3.91132C123.194 1.74673 124.949 0 127.114 0Z" fill="#FFC640"/>
<path fill-rule="evenodd" clip-rule="evenodd" d="M82.2031 27.8387C82.1521 27.0534 82.1116 26.2455 82.0814 25.4135H32.3514C29.3879 25.4135 26.9797 27.8217 26.9797 30.7852V83.4765C26.9797 84.1451 27.5237 84.6891 28.1923 84.6891H35.8276C35.1655 84.6754 34.6409 84.1368 34.6409 83.4768V82.2639H29.4049V30.7852C29.4049 29.159 30.7252 27.8387 32.3514 27.8387H82.2031ZM123.869 29.2639C124.138 29.7086 124.293 30.2296 124.293 30.7852V82.2639H119.058V83.4768C119.058 84.1368 118.533 84.6754 117.871 84.6891H125.506C126.175 84.6891 126.719 84.1451 126.719 83.4765V30.7852C126.719 28.778 125.617 27.0256 123.984 26.1036C123.989 26.3596 123.994 26.6119 123.999 26.8604C123.966 27.6909 123.923 28.491 123.869 29.2639ZM37.0661 82.2642V82.2639H116.633V82.2642H37.0661Z" fill="#FFC640"/>
<path fill-rule="evenodd" clip-rule="evenodd" d="M83.5994 34.7234C83.4385 33.9411 83.2947 33.1337 83.1677 32.2982H36.2499C35.5757 32.2982 35.0374 32.8422 35.0374 33.5108V82.553C35.0374 83.2216 35.5757 83.7656 36.2499 83.7656H118.242C118.916 83.7656 119.454 83.2216 119.454 82.553V44.7289C118.742 45.8722 117.937 47.0182 117.029 48.1974V81.3404H37.4625V34.7234H83.5994Z" fill="#FFC640"/>
</svg>
