<svg width="108" height="97" viewBox="0 0 108 97" fill="none" xmlns="http://www.w3.org/2000/svg">
<path d="M63.2544 54.5077C63.2544 53.9853 63.0455 53.5765 62.6139 53.2812C62.196 52.9859 61.6281 52.7179 60.9195 52.4771V56.1158C62.4731 56.0568 63.2544 55.5208 63.2544 54.5077ZM57.3716 44.8636C57.3716 45.3678 57.5487 45.7676 57.9031 46.0628C58.2574 46.3536 58.7843 46.6125 59.493 46.8351V43.1055C58.0757 43.2282 57.3716 43.8142 57.3716 44.8636ZM65.7711 45.1361C65.712 45.0589 65.5349 44.9272 65.2442 44.7454C64.9489 44.5637 64.5764 44.3684 64.1176 44.1504C63.6633 43.9414 63.159 43.737 62.6048 43.5462C62.0506 43.3554 61.4828 43.2191 60.9195 43.1373V47.2621L61.8916 47.5029C62.9228 47.7845 63.8495 48.0934 64.6763 48.4296C65.5076 48.7612 66.2162 49.1791 66.7841 49.6743C67.361 50.1694 67.8062 50.7691 68.1242 51.4777C68.4376 52.1864 68.5966 53.0359 68.5966 54.0262C68.5966 55.1755 68.3923 56.1613 67.9834 56.9699C67.5791 57.7785 67.043 58.4417 66.3616 58.955C65.6802 59.4684 64.908 59.8636 64.0267 60.1225C63.15 60.386 62.2232 60.5359 61.2556 60.5768V64.0928H59.1569V60.545C57.7668 60.4223 56.3859 60.1407 55.0231 59.6955C53.6512 59.2503 52.4291 58.6643 51.3389 57.9329L53.5194 53.5946C53.5966 53.6991 53.8146 53.8672 54.169 54.0943C54.5233 54.326 54.9685 54.5668 55.5181 54.8212C56.0678 55.0756 56.6857 55.3209 57.3716 55.548C58.0575 55.7797 58.7616 55.9478 59.493 56.0477V52.0138L58.0394 51.5868C57.0491 51.2869 56.1905 50.9553 55.4546 50.601C54.7323 50.2467 54.1281 49.8378 53.6511 49.3745C53.1832 48.9111 52.8243 48.3751 52.5927 47.7664C52.3655 47.1622 52.2429 46.4535 52.2429 45.6449C52.2429 44.5955 52.4245 43.6597 52.788 42.8375C53.1514 42.0198 53.6421 41.3157 54.2599 40.7297C54.8823 40.1437 55.6045 39.6803 56.4449 39.3487C57.2853 39.0126 58.1938 38.799 59.1569 38.6946V35.6328H61.2556V38.6946C62.5685 38.8172 63.7995 39.1125 64.9534 39.5758C66.1072 40.0392 67.1066 40.5162 67.9561 41.0023L65.7711 45.127V45.1361Z" fill="#FFC640"/>
<path d="M59.9614 28.6506C48.2639 28.6506 38.7379 38.1721 38.7379 49.8696C38.7379 61.5671 48.2639 71.0931 59.9614 71.0931C71.6589 71.0931 81.1849 61.5716 81.1849 49.8696C81.1849 38.1676 71.668 28.6506 59.9614 28.6506ZM59.9614 73.2191C47.0874 73.2191 36.6165 62.7436 36.6165 49.8741C36.6165 37.0047 47.0874 26.5292 59.9614 26.5292C72.8354 26.5292 83.311 37.0001 83.311 49.8741C83.311 62.7482 72.8354 73.2191 59.9614 73.2191Z" fill="#FFC640"/>
<path d="M59.9615 20.1605C43.5805 20.1605 30.2523 33.4888 30.2523 49.8699C30.2523 66.2509 43.5805 79.5837 59.9615 79.5837C76.3426 79.5837 89.6755 66.2554 89.6755 49.8699C89.6755 33.4843 76.3471 20.1605 59.9615 20.1605ZM59.9615 81.7052C42.4131 81.7052 28.1309 67.4229 28.1309 49.8699C28.1309 32.3168 42.4131 18.0391 59.9615 18.0391C77.51 18.0391 91.7969 32.3214 91.7969 49.8699C91.7969 67.4183 77.5146 81.7052 59.9615 81.7052Z" fill="#FFC640"/>
<path d="M101.182 67.9089C101.05 67.9089 100.909 67.8816 100.782 67.8271C100.237 67.6091 99.9781 66.9867 100.201 66.4416C106.906 50.1469 103.19 31.5672 90.7291 19.1065C78.9499 7.32276 61.1789 3.29338 45.4611 8.84002C39.3193 11.0069 33.8499 14.4639 29.1982 19.1065C28.7893 19.5154 28.1124 19.5154 27.7036 19.1065C27.2902 18.6886 27.2902 18.0208 27.7036 17.6029C32.5688 12.7331 38.3108 9.11259 44.7524 6.83669C52.7612 4.01566 61.3833 3.47508 69.6965 5.28308C78.2322 7.14105 86.0229 11.4021 92.2283 17.6029C98.7198 24.0944 103.063 32.2804 104.78 41.2613C106.456 50.0333 105.552 59.0188 102.168 67.2502C102 67.659 101.604 67.9043 101.182 67.9043V67.9089Z" fill="#FFC640"/>
<path d="M91.4786 88.4463C90.8926 88.4463 90.4201 87.9738 90.4201 87.3878V82.4454H85.4731C84.8871 82.4454 84.4192 81.9684 84.4192 81.3824C84.4192 80.7963 84.8871 80.3239 85.4731 80.3239H91.4786C92.0646 80.3239 92.5415 80.7963 92.5415 81.3824V87.3878C92.5415 87.9693 92.0646 88.4463 91.4786 88.4463Z" fill="#FFC640"/>
<path d="M31.4558 22.4182H25.4504C24.8644 22.4182 24.3875 21.9457 24.3875 21.3597V15.3542C24.3875 14.7728 24.8644 14.2958 25.4504 14.2958C26.0364 14.2958 26.5134 14.7682 26.5134 15.3542V20.2967H31.4558C32.0373 20.2967 32.5098 20.7737 32.5098 21.3597C32.5098 21.9457 32.0373 22.4182 31.4558 22.4182Z" fill="#FFC640"/>
<path d="M17.5187 84.8848C15.7653 84.8848 14.3343 86.3158 14.3343 88.0738C14.3343 89.8318 15.7653 91.2583 17.5187 91.2583C19.2722 91.2583 20.6986 89.8273 20.6986 88.0738C20.6986 86.3203 19.2677 84.8848 17.5187 84.8848ZM17.5187 93.3752C14.5978 93.3752 12.2129 90.9948 12.2129 88.0738C12.2129 85.1528 14.5978 82.7634 17.5187 82.7634C20.4397 82.7634 22.8246 85.1438 22.8246 88.0738C22.8246 91.0039 20.4488 93.3752 17.5187 93.3752Z" fill="#FFC640"/>
<path d="M17.5187 2.12145C15.7653 2.12145 14.3343 3.5524 14.3343 5.30589C14.3343 7.05937 15.7653 8.49033 17.5187 8.49033C19.2722 8.49033 20.6986 7.05937 20.6986 5.30589C20.6986 3.5524 19.2677 2.12145 17.5187 2.12145ZM17.5187 10.6118C14.5978 10.6118 12.2129 8.23139 12.2129 5.30589C12.2129 2.38038 14.5978 0 17.5187 0C20.4397 0 22.8246 2.38038 22.8246 5.30589C22.8246 8.23139 20.4488 10.6118 17.5187 10.6118Z" fill="#FFC640"/>
<path d="M101.35 4.24296C99.0102 4.24296 97.1068 6.14636 97.1068 8.48585C97.1068 10.8253 99.0102 12.7287 101.35 12.7287C103.689 12.7287 105.588 10.8253 105.588 8.48585C105.588 6.14636 103.689 4.24296 101.35 4.24296ZM101.35 14.8547C97.8336 14.8547 94.9854 11.9974 94.9854 8.48585C94.9854 4.97434 97.8336 2.11697 101.35 2.11697C104.866 2.11697 107.714 4.97434 107.714 8.48585C107.714 11.9974 104.857 14.8547 101.35 14.8547Z" fill="#FFC640"/>
<path d="M104.53 81.7049C104.53 82.8769 103.58 83.8264 102.404 83.8264C101.227 83.8264 100.287 82.8769 100.287 81.7049C100.287 80.5329 101.232 79.5835 102.404 79.5835C103.576 79.5835 104.53 80.5374 104.53 81.7049Z" fill="#FFC640"/>
<path d="M93.9183 92.3169C95.0903 92.3169 96.0398 93.2663 96.0398 94.4383C96.0398 95.6104 95.0903 96.5598 93.9183 96.5598C92.7463 96.5598 91.7969 95.6104 91.7969 94.4383C91.7969 93.2663 92.7463 92.3169 93.9183 92.3169Z" fill="#FFC640"/>
<path d="M32.3734 92.3168C33.5454 92.3168 34.4994 93.2663 34.4994 94.4383C34.4994 95.6103 33.5454 96.5597 32.3734 96.5597C31.2013 96.5597 30.252 95.6103 30.252 94.4383C30.252 93.2663 31.2013 92.3168 32.3734 92.3168Z" fill="#FFC640"/>
<path d="M87.5492 1.05849C88.7213 1.05849 89.6753 2.01246 89.6753 3.17993C89.6753 4.34741 88.7213 5.30138 87.5492 5.30138C86.3772 5.30138 85.4324 4.35195 85.4324 3.17993C85.4324 2.00791 86.3818 1.05849 87.5492 1.05849Z" fill="#FFC640"/>
<path d="M32.3734 3.18433C33.5454 3.18433 34.4994 4.13376 34.4994 5.30578C34.4994 6.4778 33.5454 7.42723 32.3734 7.42723C31.2013 7.42723 30.252 6.4778 30.252 5.30578C30.252 4.13376 31.2013 3.18433 32.3734 3.18433Z" fill="#FFC640"/>
<path d="M15.6298 19.3758L3.72334 31.2822C3.2509 31.7547 2.98743 32.3861 2.98743 33.063C2.98743 33.7398 3.2509 34.3667 3.72334 34.8392C4.19578 35.3162 4.83176 35.5796 5.50408 35.5796C6.17641 35.5796 6.80785 35.3162 7.28029 34.8392L11.296 30.828C11.6049 30.5236 12.0592 30.4282 12.459 30.5917C12.8587 30.7598 13.1177 31.1505 13.1177 31.5775L13.1177 58.3977C13.1177 59.7877 14.2443 60.9143 15.6298 60.9143C17.0153 60.9143 18.1464 59.7877 18.1464 58.3977L18.1464 31.5775C18.1464 31.1505 18.4054 30.7598 18.8051 30.5917C19.2049 30.4282 19.6592 30.5236 19.9635 30.828L23.9793 34.8392C24.4563 35.3162 25.0832 35.5796 25.76 35.5796C26.4369 35.5796 27.0592 35.3162 27.5362 34.8392C28.0132 34.3667 28.2722 33.7308 28.2722 33.063C28.2722 32.3952 28.0132 31.7547 27.5362 31.2822L15.6298 19.3758ZM0.856895 33.063C0.856895 31.8274 1.34296 30.6553 2.22425 29.7831L14.8802 17.1181C15.2982 16.7047 15.9705 16.7047 16.3839 17.1181L29.0444 29.7831C29.9212 30.6553 30.4072 31.8274 30.4072 33.063C30.4072 34.2986 29.9212 35.4706 29.0444 36.3474C28.1677 37.2241 27.0002 37.7102 25.76 37.7102C24.5199 37.7102 23.3524 37.2241 22.4802 36.3474L20.277 34.1532L20.277 58.3977C20.277 60.9598 18.1964 63.0449 15.6343 63.0449C13.0722 63.0449 10.9871 60.9598 10.9871 58.3977L10.9871 34.1532L8.78847 36.3474C7.91173 37.2241 6.74879 37.7102 5.50408 37.7102C4.25938 37.7102 3.09645 37.2241 2.22425 36.3474C1.34296 35.4706 0.856895 34.3031 0.856895 33.063Z" fill="#FFC640"/>
<path fill-rule="evenodd" clip-rule="evenodd" d="M16.6689 64.2911C18.8705 70.8988 22.5941 77.0261 27.7036 82.1317C33.3457 87.7783 40.3778 91.8531 48.0368 93.9201C51.9299 94.9694 55.9457 95.4964 59.966 95.4964V95.4918C63.6183 95.4918 67.2662 95.0557 70.8231 94.1881C78.9137 92.212 86.3137 88.0463 92.2283 82.1272C92.6417 81.7183 92.6417 81.0415 92.2283 80.6281C91.8149 80.2147 91.138 80.2147 90.7246 80.6281C85.0871 86.2656 78.0323 90.245 70.3234 92.1257C55.4142 95.7689 40.0416 91.467 29.1982 80.6281C24.2589 75.6888 20.6773 69.7465 18.5908 63.3412C18.0419 63.796 17.387 64.1271 16.6689 64.2911Z" fill="#FFC640"/>
</svg>
