<svg width="117" height="113" viewBox="0 0 117 113" fill="none" xmlns="http://www.w3.org/2000/svg">
<path d="M51.3929 19.1068C47.7971 19.1068 44.3497 21.9029 41.6965 26.9762C38.9004 32.3089 37.3594 39.421 37.3594 47.0044C37.3594 54.5878 38.9004 61.7052 41.6965 67.0326C44.3497 72.1112 47.7971 74.9073 51.3929 74.9073C54.9887 74.9073 58.4255 72.1112 61.084 67.0326C63.8801 61.7052 65.4158 54.5931 65.4158 47.0044C65.4158 39.4157 63.8801 32.3089 61.084 26.9762C58.4255 21.9029 54.9834 19.1068 51.3929 19.1068ZM51.3929 77.3804C46.828 77.3804 42.6074 74.1129 39.5041 68.1818C36.528 62.5048 34.8916 54.985 34.8916 47.0097C34.8916 39.0344 36.528 31.5093 39.5041 25.8323C42.6074 19.9012 46.828 16.6338 51.3929 16.6338C55.9578 16.6338 60.1731 19.9012 63.2764 25.8323C66.2525 31.5093 67.8836 39.0291 67.8836 47.0097C67.8836 54.9903 66.2525 62.5048 63.2764 68.1818C60.1731 74.1129 55.9472 77.3804 51.3929 77.3804Z" fill="#FFC640"/>
<path d="M51.3924 37.1438C43.0147 37.1438 35.2036 33.8023 29.4207 27.744C28.9494 27.2462 28.9653 26.4678 29.4631 25.9912C29.9503 25.5198 30.734 25.541 31.2106 26.0335C36.5275 31.6046 43.6925 34.6707 51.3924 34.6707C59.0923 34.6707 66.252 31.6046 71.5689 26.0335C72.0402 25.541 72.824 25.5198 73.3165 25.9912C73.8143 26.4678 73.8301 27.2462 73.3588 27.744C67.5707 33.8023 59.7702 37.1438 51.3924 37.1438Z" fill="#FFC640"/>
<path d="M72.4647 68.3617C72.1364 68.3617 71.8081 68.2346 71.5698 67.9751C66.2529 62.4094 59.0879 59.3432 51.3933 59.3432C43.6987 59.3432 36.5972 62.3829 31.2856 67.901C30.8143 68.3935 30.0306 68.4094 29.5328 67.9327C29.0456 67.4614 29.0297 66.6777 29.501 66.1852C35.2839 60.1746 43.0579 56.8648 51.3933 56.8648C59.7287 56.8648 67.5716 60.2064 73.3544 66.2699C73.831 66.7624 73.8151 67.5462 73.3173 68.0175C73.079 68.2452 72.7719 68.3617 72.4647 68.3617Z" fill="#FFC640"/>
<path d="M80.5243 48.2435H22.2561C21.5677 48.2435 21.0222 47.6874 21.0222 47.0043C21.0222 46.3212 21.5677 45.7704 22.2561 45.7704H80.5243C81.2075 45.7704 81.7635 46.3212 81.7635 47.0043C81.7635 47.6874 81.2075 48.2435 80.5243 48.2435Z" fill="#FFC640"/>
<path d="M51.3925 77.3804C50.7041 77.3804 50.1533 76.8243 50.1533 76.1412V17.8729C50.1533 17.1898 50.7041 16.6338 51.3925 16.6338C52.0809 16.6338 52.6264 17.1898 52.6264 17.8729V76.1412C52.6264 76.8243 52.0703 77.3804 51.3925 77.3804Z" fill="#FFC640"/>
<path d="M51.3929 19.1068C36.009 19.1068 23.49 31.6205 23.49 47.0044C23.49 62.3883 36.009 74.9073 51.3929 74.9073C66.7768 74.9073 79.2904 62.3883 79.2904 47.0044C79.2904 31.6205 66.7768 19.1068 51.3929 19.1068ZM51.3929 77.3804C34.6427 77.3804 21.0222 63.7546 21.0222 47.0044C21.0222 30.2542 34.6427 16.6338 51.3929 16.6338C68.1431 16.6338 81.7635 30.2595 81.7635 47.0044C81.7635 63.7493 68.1378 77.3804 51.3929 77.3804Z" fill="#FFC640"/>
<path d="M105.62 112.57C102.65 112.57 99.8481 111.41 97.7511 109.308L71.4845 83.0414C70.9973 82.5595 70.9973 81.7757 71.4845 81.2938C71.9664 80.8119 72.7502 80.8119 73.2321 81.2938L99.4986 107.555C101.135 109.191 103.306 110.092 105.62 110.092C107.935 110.092 110.106 109.191 111.747 107.555C113.379 105.924 114.279 103.747 114.279 101.433C114.279 99.119 113.379 96.9478 111.747 95.3115L85.481 69.0449C84.9938 68.563 84.9938 67.7846 85.481 67.2974C85.9682 66.8102 86.7467 66.8155 87.2286 67.2974L113.495 93.5639C115.592 95.6663 116.752 98.4624 116.752 101.433C116.752 104.404 115.592 107.206 113.495 109.308C111.393 111.41 108.591 112.57 105.62 112.57Z" fill="#FFC640"/>
<path d="M105.817 100.194C105.139 100.194 104.583 100.75 104.583 101.433C104.583 102.116 105.139 102.672 105.817 102.672C106.495 102.672 107.051 102.116 107.051 101.433C107.051 100.75 106.5 100.194 105.817 100.194ZM105.817 105.145C103.773 105.145 102.104 103.483 102.104 101.433C102.104 99.3838 103.773 97.7263 105.817 97.7263C107.861 97.7263 109.529 99.3891 109.529 101.433C109.529 103.477 107.866 105.145 105.817 105.145Z" fill="#FFC640"/>
<path d="M83.7023 23.2989H98.5011V23.3008H98.7511C99.1225 23.3008 99.4202 22.9998 99.4202 22.6317V12.5991C99.4202 12.231 99.1225 11.93 98.7511 11.93H83.7023C83.3334 11.93 83.0332 12.2303 83.0332 12.5991V22.6298C83.0332 23.0012 83.3342 23.2989 83.7023 23.2989ZM98.0838 13.2664V21.9626H84.3696V13.2664H98.0838Z" fill="#FFC640" stroke="#FFC640" stroke-width="0.5"/>
<path d="M96.0767 30.157C96.0767 29.603 96.5277 29.1534 97.0803 29.1534C97.6328 29.1534 98.0839 29.6046 98.0839 30.157C98.0839 30.7094 97.6328 31.1606 97.0803 31.1606C96.5277 31.1606 96.0767 30.711 96.0767 30.157ZM94.7385 30.157C94.7385 31.4474 95.7905 32.497 97.0803 32.497C98.3703 32.497 99.4203 31.4491 99.4203 30.157C99.4203 28.8649 98.3703 27.817 97.0803 27.817C95.7905 27.817 94.7385 28.8666 94.7385 30.157Z" fill="#FFC640" stroke="#FFC640" stroke-width="0.5"/>
<path d="M90.2222 30.157C90.2222 29.6032 90.6729 29.1534 91.2277 29.1534C91.7801 29.1534 92.2313 29.6046 92.2313 30.157C92.2313 30.7097 91.7817 31.1606 91.2277 31.1606C90.6729 31.1606 90.2222 30.7108 90.2222 30.157ZM88.8877 30.157C88.8877 31.4471 89.9375 32.497 91.2277 32.497C92.5176 32.497 93.5676 31.4491 93.5676 30.157C93.5676 28.8649 92.5176 27.817 91.2277 27.817C89.9375 27.817 88.8877 28.8669 88.8877 30.157Z" fill="#FFC640" stroke="#FFC640" stroke-width="0.5"/>
<path d="M84.3714 30.157C84.3714 29.603 84.8223 29.1534 85.375 29.1534C85.9274 29.1534 86.3786 29.6046 86.3786 30.157C86.3786 30.7094 85.9274 31.1606 85.375 31.1606C84.8223 31.1606 84.3714 30.711 84.3714 30.157ZM83.0332 30.157C83.0332 31.4473 84.0832 32.497 85.375 32.497C86.665 32.497 87.715 31.4491 87.715 30.157C87.715 28.865 86.667 27.817 85.375 27.817C84.0832 27.817 83.0332 28.8667 83.0332 30.157Z" fill="#FFC640" stroke="#FFC640" stroke-width="0.5"/>
<path d="M96.4131 28.4843C96.4131 28.8518 96.7101 29.1534 97.0804 29.1534C97.4507 29.1534 97.7476 28.8517 97.7476 28.4843V25.9771C97.7476 25.6083 97.4492 25.3099 97.0804 25.3099H85.3752C85.0077 25.3099 84.7061 25.6068 84.7061 25.9771V28.4843C84.7061 28.8532 85.0063 29.1534 85.3752 29.1534C85.7454 29.1534 86.0424 28.8517 86.0424 28.4843V26.6444H96.4131V28.4843Z" fill="#FFC640" stroke="#FFC640" stroke-width="0.5"/>
<path d="M90.5586 28.4843C90.5586 28.8532 90.8588 29.1534 91.2277 29.1534C91.598 29.1534 91.8949 28.8517 91.8949 28.4843V22.6317C91.8949 22.2643 91.598 21.9626 91.2277 21.9626C90.8588 21.9626 90.5586 22.2628 90.5586 22.6317V28.4843Z" fill="#FFC640" stroke="#FFC640" stroke-width="0.5"/>
<path d="M86.9902 16.6961H86.7402V16.9461V18.617V18.867H86.9902H88.6629H88.9129V18.617V16.9461V16.6961H88.6629H86.9902Z" fill="#FFC640" stroke="#FFC640" stroke-width="0.5"/>
<path d="M90.6973 16.6962H90.4473V16.9462V18.6171V18.8671H90.6973H92.37H92.62V18.6171V16.9462V16.6962H92.37H90.6973Z" fill="#FFC640" stroke="#FFC640" stroke-width="0.5"/>
<path d="M94.4041 16.6962H94.1541V16.9462V18.6171V18.8671H94.4041H96.0749H96.3249V18.6171V16.9462V16.6962H96.0749H94.4041Z" fill="#FFC640" stroke="#FFC640" stroke-width="0.5"/>
<path d="M51.3929 87.8286C28.881 87.8286 10.5686 69.5162 10.5686 47.0043C10.5686 24.4924 28.881 6.1853 51.3929 6.1853C60.2896 6.1853 68.7521 9.0026 75.8536 14.3247C76.399 14.7378 76.5155 15.511 76.1025 16.0564C75.6894 16.6072 74.9163 16.7131 74.3708 16.3053C67.693 11.3009 59.7495 8.65838 51.3929 8.65838C30.2473 8.65838 13.047 25.864 13.047 47.0043C13.047 68.1446 30.2473 85.3555 51.3929 85.3555C72.5385 85.3555 89.7388 68.1499 89.7388 47.0043C89.7388 44.5948 89.5058 42.1641 89.0557 39.7969C88.9286 39.1244 89.3734 38.4783 90.0407 38.3512C90.7079 38.2241 91.3593 38.6636 91.4917 39.3362C91.9683 41.8569 92.2119 44.4412 92.2119 47.0043C92.2119 69.5162 73.8995 87.8286 51.3929 87.8286Z" fill="#FFC640"/>
<path d="M26.6518 0C28.0181 0 29.1196 1.10679 29.1196 2.47837C29.1196 3.84995 28.0181 4.94616 26.6518 4.94616C25.2855 4.94616 24.1787 3.84465 24.1787 2.47837C24.1787 1.11209 25.2855 0 26.6518 0Z" fill="#FFC640"/>
<path d="M108.295 74.2242C109.661 74.2242 110.768 75.3309 110.768 76.6972C110.768 78.0635 109.661 79.1703 108.295 79.1703C106.928 79.1703 105.816 78.0635 105.816 76.6972C105.816 75.3309 106.928 74.2242 108.295 74.2242Z" fill="#FFC640"/>
<path d="M61.2856 94.014C62.6519 94.014 63.7587 95.1208 63.7587 96.487C63.7587 97.8533 62.6519 98.9601 61.2856 98.9601C59.9193 98.9601 58.8125 97.8533 58.8125 96.487C58.8125 95.1208 59.9193 94.014 61.2856 94.014Z" fill="#FFC640"/>
<path d="M21.6996 84.1163C23.0659 84.1163 24.178 85.2231 24.178 86.5894C24.178 87.9556 23.0659 89.0624 21.6996 89.0624C20.3334 89.0624 19.2266 87.9556 19.2266 86.5894C19.2266 85.2231 20.3334 84.1163 21.6996 84.1163Z" fill="#FFC640"/>
<path d="M9.32952 103.912C10.7011 103.912 11.8026 105.018 11.8026 106.385C11.8026 107.751 10.7011 108.858 9.32952 108.858C7.95795 108.858 6.85645 107.751 6.85645 106.385C6.85645 105.018 7.96324 103.912 9.32952 103.912Z" fill="#FFC640"/>
<path d="M6.85589 22.2683C8.22217 22.2683 9.32897 23.3751 9.32897 24.7414C9.32897 26.1077 8.22217 27.2145 6.85589 27.2145C5.48961 27.2145 4.38281 26.1077 4.38281 24.7414C4.38281 23.3751 5.48961 22.2683 6.85589 22.2683Z" fill="#FFC640"/>
<path d="M71.1828 0C72.5491 0 73.6559 1.10679 73.6559 2.47837C73.6559 3.84995 72.5491 4.94616 71.1828 4.94616C69.8165 4.94616 68.7097 3.84465 68.7097 2.47837C68.7097 1.11209 69.8165 0 71.1828 0Z" fill="#FFC640"/>
<path d="M108.295 39.5851C109.661 39.5851 110.768 40.6919 110.768 42.0582C110.768 43.4245 109.661 44.5313 108.295 44.5313C106.928 44.5313 105.816 43.4245 105.816 42.0582C105.816 40.6919 106.928 39.5851 108.295 39.5851Z" fill="#FFC640"/>
<path d="M90.9728 6.18536C82.1026 6.18536 74.8899 13.3981 74.8899 22.2683C74.8899 31.1385 82.1079 38.3459 90.9728 38.3459C99.8378 38.3459 107.05 31.1332 107.05 22.2683C107.05 13.4034 99.8378 6.18536 90.9728 6.18536ZM90.9728 40.819C80.7416 40.819 72.4221 32.4995 72.4221 22.2683C72.4221 12.0371 80.7416 3.71228 90.9728 3.71228C101.204 3.71228 109.529 12.0371 109.529 22.2683C109.529 32.4995 101.204 40.819 90.9728 40.819Z" fill="#FFC640"/>
<path d="M53.8607 97.721H11.8025C11.1246 97.721 10.5686 97.1703 10.5686 96.4871C10.5686 95.804 11.1246 95.2532 11.8025 95.2532H53.8607C54.5491 95.2532 55.0999 95.804 55.0999 96.4871C55.1052 97.1703 54.5491 97.721 53.8607 97.721Z" fill="#FFC640"/>
<path d="M68.7092 105.145H31.5972C30.914 105.145 30.3633 104.595 30.3633 103.912C30.3633 103.228 30.914 102.672 31.5972 102.672H68.7092C69.3923 102.672 69.9431 103.228 69.9431 103.912C69.9431 104.595 69.3923 105.145 68.7092 105.145Z" fill="#FFC640"/>
<path d="M6.85624 77.931C4.80681 77.931 3.14927 79.5939 3.14927 81.6433C3.14927 83.6927 4.80681 85.3555 6.85624 85.3555C8.90566 85.3555 10.5685 83.6874 10.5685 81.6433C10.5685 79.5992 8.90036 77.931 6.85624 77.931ZM6.85624 87.8286C3.44583 87.8286 0.670898 85.0537 0.670898 81.6433C0.670898 78.2329 3.44583 75.4579 6.85624 75.4579C10.2666 75.4579 13.0469 78.2329 13.0469 81.6433C13.0469 85.0537 10.2666 87.8286 6.85624 87.8286Z" fill="#FFC640"/>
<path d="M13.0472 6.18536C11.6809 6.18536 10.5688 7.29745 10.5688 8.65843C10.5688 10.0194 11.6809 11.1368 13.0472 11.1368C14.4134 11.1368 15.5149 10.0247 15.5149 8.65843C15.5149 7.29215 14.4081 6.18536 13.0472 6.18536ZM13.0472 13.6099C10.3146 13.6099 8.0957 11.3857 8.0957 8.65843C8.0957 5.93117 10.3146 3.71228 13.0472 3.71228C15.7797 3.71228 17.988 5.93117 17.988 8.65843C17.988 11.3857 15.7744 13.6099 13.0472 13.6099Z" fill="#FFC640"/>
<path d="M104.582 55.668C101.855 55.668 99.631 57.8869 99.631 60.6142C99.631 63.3414 101.855 65.5603 104.582 65.5603C107.31 65.5603 109.529 63.3414 109.529 60.6142C109.529 57.8869 107.31 55.668 104.582 55.668ZM104.582 68.0334C100.489 68.0334 97.158 64.7077 97.158 60.6142C97.158 56.5206 100.489 53.1896 104.582 53.1896C108.676 53.1896 112.002 56.5206 112.002 60.6142C112.002 64.7077 108.676 68.0334 104.582 68.0334Z" fill="#FFC640"/>
</svg>
