<svg width="123" height="112" viewBox="0 0 123 112" fill="none" xmlns="http://www.w3.org/2000/svg">
<path d="M89.6115 101.866C88.3392 101.454 87.1929 100.788 86.2007 99.8875C85.9757 99.6855 85.6366 99.671 85.3972 99.8541L83.0462 101.657L82.8943 101.459M89.6115 101.866C89.8974 101.956 90.0772 102.244 90.0373 102.543L89.646 105.48L89.8938 105.513M89.6115 101.866L89.6885 101.628C89.6883 101.628 89.6881 101.628 89.6879 101.628M89.6115 101.866L89.6868 101.627C89.6871 101.628 89.6875 101.628 89.6879 101.628M89.8938 105.513L89.8608 105.761L91.7649 106.015L91.798 105.767M89.8938 105.513L91.798 105.767M89.8938 105.513L90.2852 102.576C90.3406 102.16 90.0914 101.756 89.6879 101.628M91.798 105.767L92.0458 105.8L92.4371 102.863C92.477 102.564 92.7259 102.333 93.0255 102.321M91.798 105.767L92.1893 102.83C92.2448 102.414 92.5911 102.089 93.0142 102.071M93.0255 102.321C94.3583 102.256 95.642 101.914 96.8353 101.305M93.0255 102.321L93.0153 102.071C93.0149 102.071 93.0145 102.071 93.0142 102.071M93.0255 102.321L93.0133 102.071C93.0136 102.071 93.0139 102.071 93.0142 102.071M96.8353 101.305C97.1024 101.168 97.4334 101.243 97.6135 101.482M96.8353 101.305L96.7217 101.082M96.8353 101.305L96.7216 101.082C95.56 101.675 94.3112 102.008 93.0142 102.071M97.6135 101.482L99.4161 103.839L99.6145 103.687M97.6135 101.482L97.8132 101.332L99.6145 103.687M97.6135 101.482L97.8121 101.33L97.8126 101.331C97.5586 100.995 97.0955 100.891 96.7217 101.082M99.6145 103.687L99.7664 103.885L101.487 102.567M99.6145 103.687L101.137 102.52M101.487 102.567L99.5357 100.015C99.3529 99.7723 99.3696 99.4396 99.5716 99.2146C100.472 98.2224 101.135 97.0727 101.547 95.8035C101.641 95.5149 101.929 95.3352 102.228 95.375L105.162 95.766L105.195 95.5181M101.487 102.567L101.335 102.368L101.137 102.52M101.487 102.567L101.289 102.719L101.137 102.52M105.195 95.5181L105.442 95.5512L105.696 93.647L105.448 93.614M105.195 95.5181L105.448 93.614M105.195 95.5181L102.261 95.1272C101.843 95.0715 101.44 95.3223 101.309 95.7262L101.309 95.7263C100.908 96.9622 100.263 98.0809 99.3865 99.0466L99.3856 99.0476C99.1047 99.3604 99.0804 99.826 99.336 100.165L99.3371 100.167L101.137 102.52M105.448 93.614L105.481 93.3662L102.548 92.9752C102.249 92.9354 102.017 92.6895 102.002 92.3864C101.937 91.0536 101.598 89.7703 100.989 88.577M105.448 93.614L102.515 93.223C102.099 93.1676 101.774 92.8247 101.753 92.3987L101.753 92.3986C101.689 91.1008 101.359 89.8522 100.767 88.6907M100.989 88.577C100.853 88.31 100.925 87.9785 101.164 87.7954L103.716 85.8466M100.989 88.577L100.767 88.6907M100.989 88.577L100.767 88.6908C100.767 88.6907 100.767 88.6907 100.767 88.6907M103.716 85.8466L102.4 84.1232L102.201 84.2749M103.716 85.8466L103.564 85.6479L103.365 85.7996M103.716 85.8466L103.517 85.9983L103.365 85.7996M102.201 84.2749L102.05 84.0762L99.6933 85.8759M102.201 84.2749L99.8466 86.0733L99.6933 85.8759M102.201 84.2749L103.365 85.7996M99.6933 85.8759C99.4568 86.0594 99.1177 86.0449 98.8957 85.8433C97.904 84.94 96.7543 84.2768 95.485 83.865M99.6933 85.8759L99.845 86.0745L99.8457 86.074C99.5124 86.332 99.0384 86.3106 98.7277 86.0284L98.7274 86.0281C97.7625 85.1493 96.6442 84.5041 95.4087 84.103M95.485 83.865C95.199 83.7746 95.0193 83.4865 95.0591 83.1876L95.4505 80.2508L95.2027 80.2178M95.485 83.865L95.4078 84.1028C95.4081 84.1029 95.4084 84.1029 95.4087 84.103M95.485 83.865L95.4097 84.1034C95.4094 84.1032 95.409 84.1031 95.4087 84.103M95.2027 80.2178L95.2357 79.97L93.3315 79.7162L93.2985 79.964M95.2027 80.2178L93.2985 79.964M95.2027 80.2178L94.8113 83.1546C94.7559 83.5709 95.0051 83.975 95.4087 84.103M93.2985 79.964L93.0507 79.931L92.6593 82.8678C92.6195 83.1667 92.3706 83.3977 92.0709 83.41M93.2985 79.964L92.9071 82.9008C92.8517 83.3171 92.5053 83.6419 92.0822 83.6597M92.0709 83.41C90.7351 83.4747 89.4545 83.8171 88.2612 84.4261C87.9911 84.5622 87.6601 84.4873 87.4799 84.2483M92.0709 83.41L92.0812 83.6598C92.0815 83.6598 92.0818 83.6598 92.0822 83.6597M92.0709 83.41L92.083 83.6597C92.0827 83.6597 92.0825 83.6597 92.0822 83.6597M87.4799 84.2483L85.68 81.8949L85.4814 82.0468M87.4799 84.2483L87.2803 84.3987L85.4814 82.0468M87.4799 84.2483L87.2814 84.4002L87.2809 84.3996C87.5354 84.7365 87.9982 84.8385 88.3736 84.6494L88.3748 84.6488C89.5365 84.0559 90.7823 83.7228 92.0822 83.6597M85.4814 82.0468L85.3296 81.8482L83.8042 83.0148L83.9562 83.2133M85.4814 82.0468L83.9562 83.2133M83.9562 83.2133L83.7576 83.3652L85.5578 85.7156C85.7409 85.9551 85.7295 86.2946 85.5248 86.5162M83.9562 83.2133L85.7563 85.5636L85.7564 85.5638C86.0111 85.8969 85.9978 86.3717 85.7093 86.6849M85.5248 86.5162C84.6246 87.5084 83.9614 88.6581 83.5495 89.9273C83.4527 90.2155 83.168 90.3926 82.8692 90.3528L79.9353 89.9618L79.9023 90.2096M85.5248 86.5162L85.7085 86.6858C85.7088 86.6855 85.709 86.6852 85.7093 86.6849M85.5248 86.5162L85.71 86.6842C85.7098 86.6844 85.7095 86.6847 85.7093 86.6849M79.9023 90.2096L79.6545 90.1766L79.4008 92.0808L79.6486 92.1138M79.9023 90.2096L79.6486 92.1138M79.9023 90.2096L82.8361 90.6006C83.2541 90.6563 83.6518 90.4082 83.7865 90.0069L83.7865 90.0069L83.7873 90.0045C84.1882 88.7689 84.8334 87.6505 85.7093 86.6849M79.6486 92.1138L79.6155 92.3616L82.5494 92.7526C82.8482 92.7924 83.0762 93.0409 83.0911 93.344C83.1562 94.6768 83.4982 95.9605 84.1072 97.1538M79.6486 92.1138L82.5824 92.5048C83.0016 92.5607 83.32 92.909 83.3408 93.3317L83.3408 93.3318C83.4042 94.6292 83.7369 95.8783 84.3299 97.0401L84.1072 97.1538M84.1072 97.1538C84.2463 97.4242 84.1693 97.7488 83.9294 97.935L81.576 99.7349L81.7279 99.9335M84.1072 97.1538L84.3296 97.0395C84.5254 97.4202 84.4146 97.8749 84.0827 98.1325L84.0813 98.1336L81.7279 99.9335M81.7279 99.9335L81.5293 100.085L82.6959 101.611L82.8943 101.459M81.7279 99.9335L82.8943 101.459M82.8943 101.459L96.7217 101.082M82.8943 101.459L85.245 99.6558L85.2453 99.6555C85.5811 99.3987 86.0541 99.4198 86.3678 99.7015L86.3687 99.7023C87.3347 100.579 88.4498 101.227 89.6879 101.628M82.8943 101.459L96.7217 101.082M103.365 85.7996L101.012 87.5967L101.012 87.5968C100.675 87.8545 100.576 88.3179 100.767 88.6907M82.0365 103.216L82.0365 103.216C82.3297 103.599 82.8791 103.673 83.2624 103.379L85.7536 101.474C86.5767 102.13 87.4831 102.655 88.4557 103.044L88.042 106.148C87.9784 106.625 88.314 107.07 88.7958 107.134L92.4332 107.619C92.915 107.683 93.3552 107.342 93.4187 106.865L93.8325 103.76C94.8706 103.64 95.8829 103.37 96.8512 102.953L98.7567 105.444C99.0499 105.828 99.5992 105.901 99.9825 105.608L99.9826 105.607L102.898 103.375C102.898 103.375 102.898 103.375 102.898 103.375C103.282 103.082 103.353 102.536 103.062 102.151L103.061 102.15L101.158 99.6612C101.811 98.8356 102.337 97.9291 102.725 96.9562L105.83 97.3699C106.311 97.434 106.751 97.0971 106.815 96.6162L107.3 92.9787C107.364 92.5 107.026 92.0602 106.546 91.9962L103.441 91.5825C103.321 90.5418 103.052 89.5293 102.637 88.5614L105.125 86.6583L105.127 86.6573C105.508 86.3617 105.582 85.8164 105.289 85.4324L103.06 82.5149L103.06 82.5149L103.058 82.5122C102.917 82.3329 102.711 82.2101 102.481 82.1794C102.252 82.1489 102.017 82.2117 101.834 82.3514L99.3425 84.2545C98.5172 83.6033 97.6114 83.0756 96.6407 82.6872L97.0545 79.5825C97.118 79.1053 96.7825 78.6612 96.3007 78.597L92.6633 78.1123C92.1815 78.048 91.7413 78.3888 91.6777 78.866L91.264 81.9704C90.2208 82.0904 89.2104 82.3628 88.2459 82.7756L86.3398 80.2866C86.3398 80.2866 86.3397 80.2865 86.3397 80.2865C86.2 80.1039 85.9893 79.9817 85.7607 79.9513C85.5302 79.9205 85.2994 79.9852 85.1165 80.1213L85.1165 80.1213L85.114 80.1233L82.1994 82.3524C81.8135 82.6475 81.7389 83.1939 82.0364 83.5788C82.0366 83.579 82.0368 83.5792 82.0369 83.5795L83.9388 86.0695C83.285 86.8951 82.7595 87.8014 82.3692 88.7713L79.2671 88.3579C78.7853 88.2937 78.3451 88.6344 78.2815 89.1116L77.7968 92.7491C77.7327 93.23 78.0696 93.6705 78.5506 93.7346L81.6525 94.148C81.7749 95.1888 82.0447 96.2013 82.4595 97.1694L79.9712 99.0725C79.5854 99.3676 79.5107 99.914 79.8082 100.299C79.8084 100.299 79.8086 100.299 79.8088 100.3L82.0365 103.216Z" fill="#FFC640" stroke="#FFC640" stroke-width="0.5"/>
<path d="M76.582 14.9269C77.8092 14.9269 79.0417 15.0083 80.2635 15.1604V10.7133H72.8952V15.1604C74.1169 15.0083 75.3495 14.9269 76.582 14.9269ZM81.3114 17.4246C81.2517 17.4246 81.192 17.4192 81.1322 17.4083C78.135 16.8979 75.0237 16.8979 72.0264 17.4083C71.7223 17.4626 71.4128 17.3812 71.1739 17.1803C70.935 16.9794 70.8047 16.6862 70.8047 16.3767V9.67082C70.8047 9.08983 71.2717 8.61743 71.8472 8.61743H81.3114C81.8924 8.61743 82.3594 9.08983 82.3594 9.67082V16.3767C82.3594 16.6862 82.2236 16.9794 81.9847 17.1803C81.7947 17.3432 81.5558 17.4246 81.3114 17.4246Z" fill="#FFC640"/>
<path d="M93.0067 20.0689C93.9949 20.7585 94.9451 21.5132 95.8465 22.3277L97.8772 19.7051L95.0103 17.4843L93.0067 20.0689ZM95.9713 24.9231C95.6999 24.9231 95.4392 24.82 95.2437 24.6245C93.9243 23.3376 92.4745 22.1865 90.927 21.1983C90.6827 21.0408 90.5089 20.7856 90.4601 20.4978C90.4112 20.21 90.4872 19.9114 90.6664 19.6779L94.0003 15.3721C94.3533 14.916 95.0157 14.8291 95.4718 15.1874L99.9949 18.6951C100.217 18.8634 100.359 19.1132 100.391 19.3847C100.429 19.6671 100.348 19.944 100.179 20.1666L96.8021 24.5159C96.6175 24.7548 96.346 24.9014 96.0474 24.9231H95.9713Z" fill="#FFC640"/>
<path d="M47.7981 57.4315C39.2841 57.4315 32.3557 64.3654 32.3557 72.8739C32.3557 81.3825 39.2787 88.3218 47.7981 88.3218C56.3175 88.3218 63.2406 81.3933 63.2406 72.8739C63.2406 71.5653 63.0723 70.2622 62.741 68.9916C58.0171 66.4016 54.1402 62.5735 51.4958 57.8822C50.285 57.5835 49.0416 57.4315 47.7981 57.4315ZM47.7981 90.4123C38.133 90.4123 30.2598 82.5445 30.2598 72.8739C30.2598 63.2034 38.1276 55.341 47.7981 55.341C49.3728 55.341 50.9474 55.5528 52.4678 55.9709C52.7447 56.0523 52.9728 56.2315 53.1085 56.4867C55.6334 61.1238 59.4451 64.8867 64.1202 67.3572C64.37 67.4875 64.5546 67.7156 64.636 67.9871C65.0976 69.5835 65.3311 71.2233 65.3311 72.8739C65.3311 82.5445 57.4632 90.4123 47.7927 90.4123H47.7981Z" fill="#FFC640"/>
<path d="M76.5811 17.0228C75.0607 17.0228 73.5241 17.1531 72.0255 17.4083C62.2192 19.097 54.2265 26.0309 51.164 35.5114C50.3116 38.1557 49.8717 40.9195 49.8717 43.7267C49.8717 48.1846 50.9903 52.5936 53.1079 56.4868C55.6328 61.1239 59.4445 64.8868 64.1196 67.3573C67.9314 69.3718 72.2427 70.4361 76.5811 70.4361C79.5132 70.4361 82.4019 69.9637 85.1494 69.0297C95.9982 65.3537 103.285 55.1891 103.285 43.7267C103.285 36.4779 100.429 29.6906 95.238 24.6246C93.9186 23.3377 92.4688 22.1866 90.9213 21.1983C87.924 19.287 84.6281 18.011 81.1313 17.4083C79.6272 17.1531 78.096 17.0228 76.5757 17.0228H76.5811ZM76.5811 72.532C71.906 72.532 67.2581 71.3809 63.1477 69.2089C58.1034 66.5429 53.9984 62.4868 51.2726 57.4859C48.9867 53.2941 47.7812 48.5375 47.7812 43.7267C47.7812 40.7023 48.2482 37.7213 49.1713 34.8652C50.7731 29.9078 53.7106 25.4607 57.6581 22.0182C61.6436 18.5431 66.487 16.2355 71.6725 15.3504C74.9033 14.7911 78.2535 14.7911 81.4842 15.3504C85.258 15.9911 88.8145 17.3703 92.0507 19.4391C93.7176 20.4979 95.2814 21.7413 96.7041 23.1313C102.297 28.5938 105.381 35.9077 105.381 43.7267C105.381 56.085 97.524 67.0478 85.8227 71.0116C82.8525 72.0161 79.7467 72.532 76.5811 72.532Z" fill="#FFC640"/>
<path d="M76.5818 25.2219C66.3791 25.2219 58.0715 33.5241 58.0715 43.7268C58.0715 53.9294 66.3737 62.2316 76.5818 62.2316C86.7899 62.2316 95.0867 53.9294 95.0867 43.7268C95.0867 33.5241 86.7845 25.2219 76.5818 25.2219ZM76.5818 64.3276C65.2226 64.3276 55.9756 55.0914 55.9756 43.7268C55.9756 32.3621 65.2172 23.1314 76.5818 23.1314C87.9465 23.1314 97.1826 32.3676 97.1826 43.7268C97.1826 55.086 87.941 64.3276 76.5818 64.3276Z" fill="#FFC640"/>
<path d="M76.5811 39.9095C74.4743 39.9095 72.7639 41.6253 72.7639 43.7267C72.7639 45.828 74.4743 47.5439 76.5811 47.5439C78.6878 47.5439 80.3982 45.8335 80.3982 43.7267C80.3982 41.6199 78.6878 39.9095 76.5811 39.9095ZM76.5811 49.6398C73.3232 49.6398 70.668 46.9846 70.668 43.7267C70.668 40.4688 73.3232 37.819 76.5811 37.819C79.839 37.819 82.4887 40.4688 82.4887 43.7267C82.4887 46.9846 79.839 49.6398 76.5811 49.6398Z" fill="#FFC640"/>
<path d="M66.5902 8.61739H86.572V4.40927H66.5902V8.61739ZM87.62 10.7133H65.5423C64.9667 10.7133 64.4998 10.2463 64.4998 9.67078V3.35588C64.4998 2.78032 64.9667 2.31335 65.5423 2.31335H87.62C88.201 2.31335 88.668 2.78032 88.668 3.35588V9.67078C88.668 10.2463 88.201 10.7133 87.62 10.7133Z" fill="#FFC640"/>
<path d="M72.8619 40.7565C72.5958 40.7565 72.3298 40.6588 72.1234 40.4525L66.4004 34.7294C65.9932 34.3168 65.9932 33.6543 66.4004 33.2471C66.8076 32.8398 67.4701 32.8398 67.8827 33.2471L73.6058 38.9701C74.0185 39.3774 74.0185 40.0398 73.6058 40.4525C73.4049 40.6588 73.1334 40.7565 72.8673 40.7565H72.8619Z" fill="#FFC640"/>
<path d="M45.1752 109.52H50.0892L51.3543 100.653C51.4195 100.197 51.7724 99.8333 52.2285 99.7681C56.2955 99.1274 60.0801 97.607 63.4683 95.2559C63.8375 94.9953 64.3316 95.0061 64.69 95.2722L71.8519 100.648L75.327 97.1672L70.0167 90.0921C69.7397 89.7284 69.7397 89.2179 70.0058 88.8487C72.4166 85.5257 74.0673 81.6433 74.7732 77.6144C74.8492 77.1691 75.2076 76.8216 75.6583 76.7619L84.4383 75.5022V71.4407C81.8917 72.1628 79.2528 72.5321 76.5759 72.5321C60.6936 72.5321 47.7761 59.6091 47.7761 43.7268C47.7761 41.1856 48.1073 38.6716 48.7643 36.2336H45.5064L44.2304 45.1603C44.1652 45.6109 43.8177 45.9639 43.3725 46.0453C39.3598 46.7295 35.6295 48.2661 32.2956 50.6227C31.9264 50.8779 31.4268 50.8724 31.063 50.601L23.7436 45.1114L20.2685 48.5811L25.7472 55.8896C26.0187 56.2588 26.0296 56.753 25.7635 57.1276C23.4178 60.429 21.8703 64.1158 21.1644 68.0959C21.083 68.5411 20.7301 68.8832 20.2794 68.9484L11.1518 70.2515V75.1655L20.2251 76.4633C20.6758 76.523 21.0341 76.8759 21.1101 77.332C21.7672 81.3175 23.2658 85.0207 25.5735 88.3546C25.8287 88.7184 25.8178 89.2125 25.5463 89.5763L20.0296 96.9283L23.5047 100.409L30.7807 94.9519C31.1499 94.6749 31.6495 94.6695 32.0241 94.941C35.3309 97.3355 39.0395 98.9211 43.0412 99.6487C43.4811 99.7355 43.8231 100.088 43.8883 100.534L45.1697 109.52H45.1752ZM50.996 111.616H44.2684C43.7471 111.616 43.3073 111.23 43.2313 110.715L41.9227 101.565C38.1435 100.778 34.6196 99.2686 31.4268 97.0803L24.0368 102.624C23.6187 102.945 23.0377 102.896 22.6685 102.532L17.9065 97.7699C17.5427 97.4061 17.4993 96.8197 17.8088 96.4016L23.4233 88.9139C21.3219 85.7048 19.8939 82.1863 19.1771 78.4289L9.95726 77.1094C9.44143 77.0388 9.05591 76.599 9.05591 76.0777V69.3447C9.05591 68.8235 9.44143 68.3837 9.95726 68.3076L19.2423 66.9828C20.0079 63.2308 21.4739 59.7285 23.6187 56.5466L18.0477 49.1186C17.7328 48.7005 17.7762 48.1141 18.1455 47.7503L22.9074 42.9938C23.2766 42.6191 23.8576 42.5811 24.2757 42.896L31.72 48.4779C34.9399 46.3277 38.4802 44.8616 42.2702 44.1177L43.5679 35.0391C43.644 34.5232 44.0838 34.1431 44.605 34.1431H50.1706C50.5073 34.1431 50.8222 34.306 51.0177 34.5721C51.2131 34.8436 51.2674 35.1911 51.1643 35.5114C50.3118 38.1558 49.872 40.9196 49.872 43.7268C49.872 58.4525 61.8502 70.4361 76.5813 70.4361C79.5134 70.4361 82.4021 69.9637 85.1496 69.0352C85.47 68.9212 85.8229 68.9755 86.0998 69.171C86.3713 69.3719 86.5342 69.6868 86.5342 70.0235V76.4144C86.5342 76.9357 86.1487 77.3755 85.6329 77.4461L76.6954 78.7275C75.9189 82.5447 74.3605 86.2207 72.1506 89.446L77.5478 96.6405C77.8628 97.0586 77.8193 97.6396 77.4501 98.0089L72.6881 102.765C72.3189 103.14 71.7379 103.178 71.3198 102.863L64.0276 97.4007C60.7534 99.5509 57.1534 101.001 53.3145 101.701L52.0276 110.715C51.9516 111.23 51.5118 111.616 50.9905 111.616H50.996Z" fill="#FFC640"/>
<path d="M8.65402 85.9924C6.81331 85.9924 5.31467 87.491 5.31467 89.3318C5.31467 91.1725 6.81331 92.6711 8.65402 92.6711C10.4947 92.6711 11.9988 91.1725 11.9988 89.3318C11.9988 87.491 10.5002 85.9924 8.65402 85.9924ZM8.65402 94.9028C5.58616 94.9028 3.08301 92.405 3.08301 89.3318C3.08301 86.2585 5.58616 83.7607 8.65402 83.7607C11.7219 83.7607 14.225 86.2585 14.225 89.3318C14.225 92.405 11.7273 94.9028 8.65402 94.9028Z" fill="#FFC640"/>
<path d="M107.197 22.1226C105.658 24.7889 106.575 28.1961 109.241 29.7355C111.907 31.2748 115.307 30.3599 116.846 27.6936C118.386 25.0274 117.466 21.6248 114.809 20.0909C112.152 18.557 108.734 19.4611 107.197 22.1226ZM118.774 28.8067C116.621 32.5357 111.84 33.8129 108.125 31.6682C104.41 29.5234 103.111 24.7358 105.264 21.0068C107.417 17.2778 112.193 16.01 115.922 18.1629C119.651 20.3159 120.922 25.0872 118.774 28.8067Z" fill="#FFC640"/>
<path d="M12.3678 103.308C13.595 103.308 14.5941 104.302 14.5941 105.535C14.5941 106.767 13.595 107.761 12.3678 107.761C11.1407 107.761 10.1416 106.767 10.1416 105.535C10.1416 104.302 11.1353 103.308 12.3678 103.308Z" fill="#FFC640"/>
<path d="M3.13736 97.3354C4.36451 97.3354 5.3636 98.329 5.3636 99.5616C5.3636 100.794 4.36451 101.788 3.13736 101.788C1.91022 101.788 0.911133 100.794 0.911133 99.5616C0.911133 98.329 1.90479 97.3354 3.13736 97.3354Z" fill="#FFC640"/>
<path d="M103.562 6.96098C104.178 5.89354 105.543 5.52785 106.606 6.14142C107.669 6.75499 108.039 8.12248 107.423 9.18992C106.806 10.2574 105.444 10.6183 104.377 10.0021C103.31 9.38578 102.949 8.02371 103.562 6.96098Z" fill="#FFC640"/>
<path d="M42.1655 44.2949C41.6389 44.5989 40.9565 44.4161 40.647 43.88L34.5629 33.342C34.3321 32.9423 34.3703 32.4437 34.6623 32.0808C38.418 27.4547 38.945 20.8743 35.964 15.7111C32.983 10.5479 27.2726 7.8571 21.5539 8.59445L29.3539 22.1044C29.6579 22.631 29.4825 23.3154 28.9511 23.6222L21.2345 28.0774C20.6937 28.3896 20.0133 28.1993 19.7093 27.6727L11.9093 14.1627C8.4161 18.7439 7.94818 25.1334 10.8721 30.1979C13.7961 35.2623 19.8107 38.1976 25.6996 37.2554C26.1599 37.184 26.6155 37.3975 26.8463 37.7972L32.9304 48.3352C33.2399 48.8713 33.0523 49.5564 32.521 49.8632C31.9896 50.17 31.3072 49.9871 30.9977 49.451L25.2882 39.5619C18.7492 40.2902 12.2537 37.0432 8.94417 31.311C7.10617 28.1275 6.37692 24.5296 6.83016 20.8947C7.27114 17.3798 8.85307 14.0275 11.2757 11.4689C11.511 11.2139 11.8633 11.0858 12.2137 11.128C12.5567 11.1682 12.8681 11.3709 13.0473 11.6812L21.078 25.5909L26.8666 22.2488L18.8359 8.33917C18.6567 8.02881 18.6369 7.65781 18.7782 7.33794C18.9169 7.01338 19.204 6.77234 19.5472 6.69335C22.9743 5.87462 26.661 6.17878 29.9282 7.55904C33.298 8.98666 36.054 11.4145 37.892 14.598C41.2015 20.3302 40.7657 27.5789 36.8655 32.8778L42.575 42.7669C42.8845 43.303 42.7063 43.9827 42.1655 44.2949Z" fill="#FFC640"/>
</svg>
